<svg id="Layer_1" data-name="Layer 1" xmlns="http://www.w3.org/2000/svg" viewBox="0 0 100 50"><defs><style>.cls-1{fill:#fff;}.cls-2{fill:#e74c3c;}.cls-3{fill:#34495e;}</style></defs><title>Artboard 1</title><path class="cls-1" d="M7.61,23.19a1.56,1.56,0,0,1-.51-.08,1.51,1.51,0,0,1-.92-.87,9.33,9.33,0,0,1-.34-1.09c-.13-.47-.25-1-.38-1.49h0c-.11-.5-.22-.94-.31-1.3h0c-.17-.65-.32-1.3-.46-1.95s-.26-1.22-.36-1.78a6.28,6.28,0,0,0-.66.4c-.4.28-.47.45-.48.47s0,.08,0,.2a.69.69,0,0,0,.26.31h0a1.2,1.2,0,0,1,.38.49,1.37,1.37,0,0,1-.15,1.28,1.81,1.81,0,0,1-.86.76,1.4,1.4,0,0,1-.54.11,1.3,1.3,0,0,1-.42-.07A2.43,2.43,0,0,1,1,18a3.22,3.22,0,0,1-.69-1.05,3.09,3.09,0,0,1,0-2.56A5.28,5.28,0,0,1,2.19,12.3a19.54,19.54,0,0,1,3.49-1.81c.88-.37,1.6-.65,2.15-.84a13.36,13.36,0,0,1,1.52-.44,2.49,2.49,0,0,1,.5-.06,1.72,1.72,0,0,1,.63.11,1.43,1.43,0,0,1,.82.79,1.54,1.54,0,0,1,0,1.37,1.84,1.84,0,0,1-1.1.83l-1.69.58-.92.35c.27,1.34.57,2.69.88,4,.13.55.3,1.21.5,2s.37,1.32.51,1.74a1.56,1.56,0,0,1-.15,1.35,2,2,0,0,1-.93.77A2,2,0,0,1,7.61,23.19Z"/><path class="cls-1" d="M12.79,21.24a1.26,1.26,0,0,1-1-.43,3.34,3.34,0,0,1-.59-1.21c-.09-.27-.15-.48-.2-.65l-.29-1a23.19,23.19,0,0,1-.9-4.2,13.27,13.27,0,0,1,0-4.05,3.13,3.13,0,0,1,1.92-2.6,2,2,0,0,1,.61-.1,2,2,0,0,1,1.2.41,3,3,0,0,1,1,1.56,6.47,6.47,0,0,1,.12,3.2q0,.19-.08.4a1.92,1.92,0,0,1,.48-.07,1.53,1.53,0,0,1,1.49,1.18,10.68,10.68,0,0,1,.32,2L17,16l.18-.43h0a1.28,1.28,0,0,1,.79-.74,1.12,1.12,0,0,1,1.09.22,1.6,1.6,0,0,1,.47.75,2,2,0,0,1,0,1.41,7.63,7.63,0,0,1-.92,1.61A3.24,3.24,0,0,1,17,20a2.5,2.5,0,0,1-.76.13,1.87,1.87,0,0,1-1-.26,2,2,0,0,1-.58-.53,1.94,1.94,0,0,1-1.42,1.86A1.59,1.59,0,0,1,12.79,21.24Zm4.41-4.19Z"/><path class="cls-1" d="M19.9,19a3,3,0,0,1-1.67-.48,3.64,3.64,0,0,1-1.51-2.25,4.55,4.55,0,0,1-.06-2.06,3.88,3.88,0,0,1,.89-1.82,3.43,3.43,0,0,1,1.75-1.07,2.88,2.88,0,0,1,.72-.1,2.31,2.31,0,0,1,1.17.31,2.42,2.42,0,0,1,1.12,1.56,3,3,0,0,1,.08,1.12,1.13,1.13,0,0,1,.69.32,1.6,1.6,0,0,1,.43.78,2.24,2.24,0,0,1,0,1.3,3.33,3.33,0,0,1-.93,1.42,3.78,3.78,0,0,1-1.62.84A4.12,4.12,0,0,1,19.9,19Z"/><path class="cls-1" d="M27.87,17.33a2.33,2.33,0,0,1-1.56-.58,3.12,3.12,0,0,1-1-1.9,5,5,0,0,1,.16-2.39,4.9,4.9,0,0,1,1.2-2,3.68,3.68,0,0,1,2-1.07l.32,0a1.15,1.15,0,0,1,.74.24l.06.05h.05a2.14,2.14,0,0,1,.36,0,1.24,1.24,0,0,1,1.29,1,8.56,8.56,0,0,1,0,1.45c0,.31,0,.57,0,.8l.22-.37h0a1.28,1.28,0,0,1,.88-.63l.2,0a1.13,1.13,0,0,1,.85.39,1.6,1.6,0,0,1,.37.81,2,2,0,0,1-.2,1.38,7.33,7.33,0,0,1-1,1.43,2.71,2.71,0,0,1-1.52.89l-.35,0a2.06,2.06,0,0,1-1-.28l-.11-.06a2.53,2.53,0,0,1-1.48.82A2.78,2.78,0,0,1,27.87,17.33Z"/><path class="cls-1" d="M33.86,16.41a2.43,2.43,0,0,1-1.68-.66,3.05,3.05,0,0,1-.95-2,5.07,5.07,0,0,1,.25-2.32,4.73,4.73,0,0,1,1.24-1.9,4.31,4.31,0,0,1,1.36-.86,16.25,16.25,0,0,1,.46-3.94c.41-1.58,1.18-2.45,2.29-2.58h.23a1.94,1.94,0,0,1,1.44.66,3.31,3.31,0,0,1,.76,1.93,10.86,10.86,0,0,1-.32,3.72,25.69,25.69,0,0,1-1.35,4c0,.09,0,.16.06.22a9.27,9.27,0,0,0,.71-1h0a1.28,1.28,0,0,1,.91-.58h.14a1.12,1.12,0,0,1,.89.43,1.6,1.6,0,0,1,.32.83,2,2,0,0,1-.28,1.37,7.06,7.06,0,0,1-1.15,1.38,2.94,2.94,0,0,1-1.65.81l-.28,0a2.2,2.2,0,0,1-1.37-.48,2.79,2.79,0,0,1-.39.36,2.7,2.7,0,0,1-1.31.5Zm.58-3.5q0,.1,0,.2l0-.06Z"/><path class="cls-1" d="M40.22,15.78a1.78,1.78,0,0,1-1.41-.66,3.35,3.35,0,0,1-.65-1.68c-.18-1.21-.31-2.29-.37-3.2l0-.46h0a1.51,1.51,0,0,1,.48-1.26,1.87,1.87,0,0,1,1.13-.41h.14a1.45,1.45,0,0,1,.94.3,1.29,1.29,0,0,1,.43.65,2.54,2.54,0,0,1,.53-.65,2,2,0,0,1,1.23-.51h.12a1.58,1.58,0,0,1,1.14.47,1.92,1.92,0,0,1,.52,1.28,3.17,3.17,0,0,1,0,.32h0l.31-.08a1.32,1.32,0,0,1,.31-.05h.09a1.18,1.18,0,0,1,.88.38,1.36,1.36,0,0,1,.34.85,1.89,1.89,0,0,1-.23,1.11,1.68,1.68,0,0,1-.84.7,4.89,4.89,0,0,1-1.5.33h-.68c-.15.27-.31.54-.48.82a5.08,5.08,0,0,1-1,1.27,2.23,2.23,0,0,1-1.3.51Z"/><path class="cls-1" d="M47.12,15.48a3.62,3.62,0,0,1-2.58-.92,3.49,3.49,0,0,1-1-2.58,4.55,4.55,0,0,1,.42-2A3.88,3.88,0,0,1,45.2,8.4a3.43,3.43,0,0,1,2-.63h.06a2.36,2.36,0,0,1,2.46,2.43,3,3,0,0,1-.1.85,1.23,1.23,0,0,1,.66-.21h0a1.12,1.12,0,0,1,1,.53,1.6,1.6,0,0,1,.24.86A2,2,0,0,1,51,13.56a5.54,5.54,0,0,1-1.55,1.29,4.56,4.56,0,0,1-2.25.64Z"/><path class="cls-1" d="M54.12,15.58H54a2,2,0,0,1-1.59-.71,2,2,0,0,1-.37-.67,2.22,2.22,0,0,1-.44.82,1.52,1.52,0,0,1-1.16.46h-.06A1.52,1.52,0,0,1,49,14.39a5.52,5.52,0,0,1-.2-2A11.34,11.34,0,0,1,49.37,9a1.77,1.77,0,0,1,.74-1,2.08,2.08,0,0,1,1.11-.28h.09a1.46,1.46,0,0,1,.79.21,1,1,0,0,1,.37.44l.33-.21a2.74,2.74,0,0,1,1.3-.37h.06a1.56,1.56,0,0,1,1.62,1.71,10.68,10.68,0,0,1-.36,2l-.07.3.31-.34h0a1.29,1.29,0,0,1,1-.44h0a1.12,1.12,0,0,1,1,.57,1.6,1.6,0,0,1,.2.87,2,2,0,0,1-.47,1.31A6.53,6.53,0,0,1,55.94,15,3.3,3.3,0,0,1,54.12,15.58Z"/><path class="cls-1" d="M59.12,15.91h-.3a3.07,3.07,0,0,1-2.54-1.47,5.5,5.5,0,0,1-.56-3.3q0-.17,0-.34a1.28,1.28,0,0,1-.73-.43,1.42,1.42,0,0,1-.29-1,1.38,1.38,0,0,1,1.39-1.44h.16a12.8,12.8,0,0,1,.74-2,6.67,6.67,0,0,1,1.4-2A2.71,2.71,0,0,1,60.31,3h.18A1.79,1.79,0,0,1,62,4a3,3,0,0,1,.32,1.67,5.05,5.05,0,0,1-.94,2.61,1.12,1.12,0,0,1,.54.34,1.25,1.25,0,0,1,.26.94c0,.36-.26,1.55-2,1.55h-.36L59,11.07v.17a3.2,3.2,0,0,0,.09,1.47c0,.07.07.13.27.15h.07a.69.69,0,0,0,.4-.12,7,7,0,0,0,1-.82,1.27,1.27,0,0,1,.91-.4h.09a1.12,1.12,0,0,1,.92.61,1.6,1.6,0,0,1,.16.88,2,2,0,0,1-.53,1.29,6.31,6.31,0,0,1-1.48,1.17A3.43,3.43,0,0,1,59.12,15.91Z"/><path class="cls-1" d="M65.09,16.56l-.44,0a1.84,1.84,0,0,1-1.32-.74,2.07,2.07,0,0,1-1.23.42h-.23a1.91,1.91,0,0,1-1.51-1.08,3.11,3.11,0,0,1-.29-1.85,12.09,12.09,0,0,1,.37-1.87,12,12,0,0,1,.67-1.76,1.88,1.88,0,0,1,.77-.88,1.78,1.78,0,0,1,.87-.2l.38,0A1.39,1.39,0,0,1,64,9a1.12,1.12,0,0,1,.3.61,1.59,1.59,0,0,1,.47-.45,1.65,1.65,0,0,1,.87-.22l.31,0a1.57,1.57,0,0,1,.81.29,1.1,1.1,0,0,1,.39,1,10.57,10.57,0,0,1-.57,1.89l-.28.82.34-.31h0a1.28,1.28,0,0,1,.88-.36h.15a1.12,1.12,0,0,1,.89.66,1.6,1.6,0,0,1,.12.88,2,2,0,0,1-.59,1.27,6.53,6.53,0,0,1-1.5,1.1A3.28,3.28,0,0,1,65.09,16.56Z"/><path class="cls-1" d="M67.56,16.95l-.34,0A1.52,1.52,0,0,1,66,15.65a5.52,5.52,0,0,1,.07-2A11.34,11.34,0,0,1,67.1,10.4,1.77,1.77,0,0,1,68,9.54a1.87,1.87,0,0,1,.76-.15,2.85,2.85,0,0,1,.47,0,1.46,1.46,0,0,1,.75.32,1,1,0,0,1,.31.49l.35-.16a3,3,0,0,1,1-.21,2.16,2.16,0,0,1,.36,0,1.56,1.56,0,0,1,1.36,1.92,3.25,3.25,0,0,1-.13.48,1.25,1.25,0,0,1,.41-.07l.2,0a1.13,1.13,0,0,1,.86.68,1.52,1.52,0,0,1,.09.87A1.85,1.85,0,0,1,74.1,15a4.33,4.33,0,0,1-1.16.61,2.92,2.92,0,0,1-1.46.12A2.21,2.21,0,0,1,70,14.9a1.93,1.93,0,0,1-.23-.42,8.54,8.54,0,0,0-.56,1.08,2.67,2.67,0,0,1-.7,1.07A1.46,1.46,0,0,1,67.56,16.95Zm5.36-3.7Z"/><path class="cls-1" d="M75.49,18.41a4.63,4.63,0,0,1-1-.1,3.67,3.67,0,0,1-2.41-1.51A3.49,3.49,0,0,1,71.68,14a4.56,4.56,0,0,1,.87-1.87,3.88,3.88,0,0,1,1.61-1.23,3.39,3.39,0,0,1,1.28-.25,3.66,3.66,0,0,1,.76.08,2.36,2.36,0,0,1,1.9,2.94,3,3,0,0,1-.29.8,1.24,1.24,0,0,1,.43-.08l.26,0a1.12,1.12,0,0,1,.83.73,1.6,1.6,0,0,1,0,.89,2,2,0,0,1-.71,1.21,5.54,5.54,0,0,1-1.8.9A4.6,4.6,0,0,1,75.49,18.41Z"/><path class="cls-1" d="M79.69,19.75a2.83,2.83,0,0,1-.7-.09,2.31,2.31,0,0,1-1.39-.88,1.9,1.9,0,0,1-.31-.73,1.45,1.45,0,0,1-.31,0,1.4,1.4,0,0,1-.34,0,1.25,1.25,0,0,1-.82-.66,1.36,1.36,0,0,1-.1-1,1.56,1.56,0,0,1,.6-.88l.21-.15a16,16,0,0,0,1.31-1.07,7.55,7.55,0,0,0,.6-.67l.94-1.19a1.69,1.69,0,0,1,1.39-.67,2.42,2.42,0,0,1,.6.08,2,2,0,0,1,.78.34,1,1,0,0,1,.37,1.09,1.65,1.65,0,0,1-.21.45,2.7,2.7,0,0,1-.31.41,1.32,1.32,0,0,0-.22.33v0a3.94,3.94,0,0,0,.22.54v0a8.88,8.88,0,0,1,.41,1.15,2.5,2.5,0,0,1,0,1.27,3,3,0,0,1-.68,1.28,2.87,2.87,0,0,1-1.22.81A2.6,2.6,0,0,1,79.69,19.75Z"/><path class="cls-1" d="M87.82,21.83a3.17,3.17,0,0,1-1-.16,3.1,3.1,0,0,1-1.53-1A3.19,3.19,0,0,1,84.65,19a4,4,0,0,1,.18-1.71,4.76,4.76,0,0,1,1.09-1.86,3.76,3.76,0,0,1,1.73-1,3.45,3.45,0,0,1,.9-.12,3.49,3.49,0,0,1,1.09.18A2.84,2.84,0,0,1,91.42,16a3.57,3.57,0,0,1,.29,1.45l.59.05h0a1.56,1.56,0,0,1,.38.07,1.11,1.11,0,0,1,.75.88,1.71,1.71,0,0,1-.07.84A1.43,1.43,0,0,1,92,20.49H91.9a6.44,6.44,0,0,1-1.25-.13,3.87,3.87,0,0,1-1.48,1.16A3.34,3.34,0,0,1,87.82,21.83Zm.13-3.56a.94.94,0,0,0-.05.53v0l.07,0a.55.55,0,0,0,.12-.1A2.59,2.59,0,0,1,87.95,18.27Z"/><path class="cls-1" d="M91.08,27.26a2.1,2.1,0,0,1-.73-.13A2.32,2.32,0,0,1,89,24.61a15.42,15.42,0,0,1,1.06-4.08,25.23,25.23,0,0,1,2.32-4.66,15.79,15.79,0,0,1,3-3.62,4,4,0,0,1,2.51-1.14,2.33,2.33,0,0,1,.81.14,1.9,1.9,0,0,1,1.22,1.44,3.51,3.51,0,0,1-.22,1.94,9.22,9.22,0,0,1-4.42,4.53,7.66,7.66,0,0,0,.89.24h0l.22.05.31.1a1.21,1.21,0,0,1,.64,1.7A1.7,1.7,0,0,1,95.7,22.4a3.43,3.43,0,0,1-1.12-.22q-.08.35-.17.72a15.51,15.51,0,0,1-.48,1.63,4.82,4.82,0,0,1-1.42,2.2A2.3,2.3,0,0,1,91.08,27.26Z"/><path class="cls-1" d="M32.91,49a2,2,0,0,1-1.81-1L25,38.72v8.64a1.58,1.58,0,0,1-.51,1.19,1.67,1.67,0,0,1-1.17.45H19.22a1.66,1.66,0,0,1-1.64-1.64V26.31A1.68,1.68,0,0,1,18,25.14a1.58,1.58,0,0,1,1.19-.51h3.67a2,2,0,0,1,1.81,1l6.12,9.67v-9a1.68,1.68,0,0,1,.45-1.17,1.58,1.58,0,0,1,1.19-.51h4.12a1.59,1.59,0,0,1,1.19.51,1.68,1.68,0,0,1,.45,1.17v21a1.68,1.68,0,0,1-.45,1.17,1.59,1.59,0,0,1-1.19.51Z"/><path class="cls-1" d="M47.78,47.7A8.92,8.92,0,0,1,42.14,46a5.72,5.72,0,0,1-2.21-4.74A5.59,5.59,0,0,1,41,37.86a8.64,8.64,0,0,1,2.12-2,7.6,7.6,0,0,1-1-1.49,5.39,5.39,0,0,1-.53-2.31,5.33,5.33,0,0,1,.8-2.84,5.54,5.54,0,0,1,2.39-2.07,8.4,8.4,0,0,1,3.65-.73,7.55,7.55,0,0,1,3.43.74,5.69,5.69,0,0,1,2.3,2A5.15,5.15,0,0,1,55,32a5,5,0,0,1-1.14,3.23,9.39,9.39,0,0,1-2.11,1.83l1.59,1.6.18-.34a10.08,10.08,0,0,0,.6-1.56,1.34,1.34,0,0,1,1.37-1h2.91a1.34,1.34,0,0,1,1.35,1.35v0a7,7,0,0,1-1,2.91,20.24,20.24,0,0,1-1.54,2.44l2.54,2.61a1.35,1.35,0,0,1,.43,1,1.29,1.29,0,0,1-.42,1,1.35,1.35,0,0,1-.92.35H55a1.78,1.78,0,0,1-1.29-.51L53,46.28a8.12,8.12,0,0,1-2.1,1A10.92,10.92,0,0,1,47.78,47.7Zm-.94-7.78c-.73.53-.74,1-.74,1.16a1.16,1.16,0,0,0,.44,1,1.86,1.86,0,0,0,1.23.42,3.42,3.42,0,0,0,1.37-.26Zm1.64-8.48a.84.84,0,0,0-.61.23.64.64,0,0,0-.22.52,1.16,1.16,0,0,0,.18.56,4,4,0,0,0,.42.58,4.93,4.93,0,0,0,.81-.59.73.73,0,0,0,.28-.57.62.62,0,0,0-.21-.5A.89.89,0,0,0,48.48,31.44Z"/><path class="cls-1" d="M75.79,49a2.33,2.33,0,0,1-1.3-.35A2.18,2.18,0,0,1,73.8,48l-4.65-6v5.34a1.64,1.64,0,0,1-.45,1.13,1.59,1.59,0,0,1-1.19.51H63.17a1.66,1.66,0,0,1-1.64-1.64V26.31A1.68,1.68,0,0,1,62,25.14a1.58,1.58,0,0,1,1.19-.51h4.35a1.59,1.59,0,0,1,1.19.51,1.68,1.68,0,0,1,.45,1.17V31l4.22-5.35a2.11,2.11,0,0,1,2-1h5a1.55,1.55,0,0,1,1.51,1.51,1.35,1.35,0,0,1-.33.93l-7.15,9.26L82.1,46.57a1.35,1.35,0,0,1,.32.92A1.47,1.47,0,0,1,82,48.55a1.51,1.51,0,0,1-1.09.45Z"/><path class="cls-2" d="M10.17,10a.61.61,0,0,1,.36.34.75.75,0,0,1,0,.66,1.06,1.06,0,0,1-.63.43l-1.71.58q-.61.22-1.59.61.47,2.36,1,4.72.21.86.51,2t.53,1.79a.72.72,0,0,1-.06.65,1.15,1.15,0,0,1-.55.45,1,1,0,0,1-.68.06A.69.69,0,0,1,7,21.91a8.73,8.73,0,0,1-.3-1q-.19-.7-.37-1.47T6,18.13q-.25-1-.45-1.91t-.37-1.82L5,13.95l-.11-.56a10.63,10.63,0,0,0-1.75,1,2.12,2.12,0,0,0-.76.83,1.05,1.05,0,0,0,0,.83,1.52,1.52,0,0,0,.56.67.38.38,0,0,1,.12.16.58.58,0,0,1-.09.53,1,1,0,0,1-.47.43.51.51,0,0,1-.38,0,1.6,1.6,0,0,1-.63-.41A2.39,2.39,0,0,1,1,16.61a2.28,2.28,0,0,1,0-1.89A4.54,4.54,0,0,1,2.66,13,18.65,18.65,0,0,1,6,11.26q1.3-.54,2.1-.82A12.47,12.47,0,0,1,9.52,10,1.16,1.16,0,0,1,10.17,10Z"/><path class="cls-2" d="M18.56,15.69a.8.8,0,0,1,.22.37,1.18,1.18,0,0,1,0,.83A6.77,6.77,0,0,1,18,18.33a2.41,2.41,0,0,1-1.22.85,1.25,1.25,0,0,1-1.06-.06,1.61,1.61,0,0,1-.65-.94,8,8,0,0,1-.22-1.28,6.66,6.66,0,0,0-.18-1.12q-.06-.2-.2-.15t-.32.55a6.32,6.32,0,0,0-.24,1.27,9.24,9.24,0,0,0,0,1.57A1.16,1.16,0,0,1,13,20.37a.5.5,0,0,1-.57-.11,2.76,2.76,0,0,1-.42-.91q-.13-.39-.19-.63l-.3-1a22.26,22.26,0,0,1-.87-4.05,12.39,12.39,0,0,1,0-3.8q.31-1.63,1.36-2a1.13,1.13,0,0,1,1.07.19,2.2,2.2,0,0,1,.75,1.14,5.63,5.63,0,0,1,.1,2.79,17.41,17.41,0,0,1-1.36,3.85q.17.65.38,1.32a7.38,7.38,0,0,1,.36-2A3.69,3.69,0,0,1,14.05,14a1.88,1.88,0,0,1,.8-.57.74.74,0,0,1,1,.54,10.34,10.34,0,0,1,.28,1.81,8.91,8.91,0,0,0,.22,1.48q.16.49.51.38a1,1,0,0,0,.49-.49A10.32,10.32,0,0,0,18,15.9a.45.45,0,0,1,.28-.28A.3.3,0,0,1,18.56,15.69ZM11.92,10a11.19,11.19,0,0,0,0,1.87,23.81,23.81,0,0,0,.34,2.46A9.19,9.19,0,0,0,12.91,12a4.77,4.77,0,0,0-.11-2.07,1.72,1.72,0,0,0-.28-.57.29.29,0,0,0-.31-.13Q12,9.29,11.92,10Z"/><path class="cls-2" d="M22.5,15.18a.8.8,0,0,1,.2.39,1.42,1.42,0,0,1,0,.83,2.5,2.5,0,0,1-.7,1.07,3,3,0,0,1-1.27.65,2.47,2.47,0,0,1-2-.24,2.83,2.83,0,0,1-1.16-1.76,3.72,3.72,0,0,1-.05-1.69,3.05,3.05,0,0,1,.7-1.43,2.6,2.6,0,0,1,1.34-.81,1.63,1.63,0,0,1,1.27.13,1.61,1.61,0,0,1,.74,1.05A2.08,2.08,0,0,1,21.27,15a4.61,4.61,0,0,1-1.84,1.52,1.08,1.08,0,0,0,1.16.31,1.45,1.45,0,0,0,.78-.45,4.2,4.2,0,0,0,.56-1,.44.44,0,0,1,.29-.27A.3.3,0,0,1,22.5,15.18Zm-3.54-1a2.58,2.58,0,0,0,0,1.38v0a2.92,2.92,0,0,0,1-.82,1.06,1.06,0,0,0,.21-.92A.56.56,0,0,0,20,13.5a.47.47,0,0,0-.39-.05A.94.94,0,0,0,19,14.18Z"/><path class="cls-2" d="M26.85,16.12a2.31,2.31,0,0,1-.73-1.41,4.18,4.18,0,0,1,.13-2,4.06,4.06,0,0,1,1-1.67,2.85,2.85,0,0,1,1.56-.84.5.5,0,0,1,.39,0,.92.92,0,0,1,.23.36,3,3,0,0,1,.55-.15q.62-.11.7.34a9.64,9.64,0,0,1,0,1.3,12.46,12.46,0,0,0,.06,2.08.47.47,0,0,0,.15.29.31.31,0,0,0,.27.07,1,1,0,0,0,.53-.41,11,11,0,0,0,.75-1.17.45.45,0,0,1,.31-.24.3.3,0,0,1,.29.11.8.8,0,0,1,.17.4,1.18,1.18,0,0,1-.1.83,6.48,6.48,0,0,1-.91,1.28,1.91,1.91,0,0,1-1,.64,1.2,1.2,0,0,1-.82-.15,1.76,1.76,0,0,1-.66-.69,2,2,0,0,1-1.47,1.35A1.56,1.56,0,0,1,26.85,16.12Zm2.06-1.43a2.17,2.17,0,0,0,.22-.94l.06-2.41a1.56,1.56,0,0,0-.91.57,2.73,2.73,0,0,0-.54,1.14,3.48,3.48,0,0,0,0,1.39A.91.91,0,0,0,28,15a.55.55,0,0,0,.47.11A.71.71,0,0,0,28.91,14.7Z"/><path class="cls-2" d="M39.65,12.11a.8.8,0,0,1,.15.41,1.18,1.18,0,0,1-.15.82,6.2,6.2,0,0,1-1,1.23,2.12,2.12,0,0,1-1.18.6,1.62,1.62,0,0,1-1.61-1,3.69,3.69,0,0,1-.83,1,1.87,1.87,0,0,1-.91.34,1.63,1.63,0,0,1-1.35-.43,2.24,2.24,0,0,1-.68-1.45,4.23,4.23,0,0,1,.21-1.95,3.9,3.9,0,0,1,1-1.57,3.49,3.49,0,0,1,1.63-.86A16.15,16.15,0,0,1,35.34,5q.48-1.83,1.59-2a1.1,1.1,0,0,1,1,.39,2.57,2.57,0,0,1,.54,1.46,10,10,0,0,1-.31,3.43,25,25,0,0,1-1.41,4.15,2.8,2.8,0,0,0,.35,1,.51.51,0,0,0,.48.27,1.1,1.1,0,0,0,.67-.39,9.39,9.39,0,0,0,.84-1.13.45.45,0,0,1,.32-.22A.3.3,0,0,1,39.65,12.11ZM34.85,14a3.77,3.77,0,0,0,.53-.81,8.57,8.57,0,0,1-.31-1.53q0-.31-.09-1a2.15,2.15,0,0,0-1.06,1.08,2.91,2.91,0,0,0-.28,1.66q.11.93.75.86A.77.77,0,0,0,34.85,14Zm1.71-8.78a15.83,15.83,0,0,0-.15,2.3q0,1.41.09,2.94a13,13,0,0,0,.84-5.17,2.69,2.69,0,0,0-.17-.74q-.11-.26-.23-.24T36.55,5.19Z"/><path class="cls-2" d="M45.14,10.64a.36.36,0,0,1,.3.11.54.54,0,0,1,.13.34,1.09,1.09,0,0,1-.11.63.87.87,0,0,1-.44.36,4,4,0,0,1-1.24.27,3.61,3.61,0,0,1-1.07-.08q-.33.63-.74,1.3a4.37,4.37,0,0,1-.82,1.06,1.41,1.41,0,0,1-.83.32,1,1,0,0,1-.85-.36A2.61,2.61,0,0,1,39,13.32q-.27-1.78-.36-3.13l0-.45a.73.73,0,0,1,.19-.6,1.07,1.07,0,0,1,.64-.21.71.71,0,0,1,.5.12.65.65,0,0,1,.19.48q.1,1.47.43,3.82.7-1.19,1-1.9a1.91,1.91,0,0,1-.25-.87,2,2,0,0,1,.14-.86A1.78,1.78,0,0,1,42,9a1.21,1.21,0,0,1,.74-.31.77.77,0,0,1,.62.22,1.13,1.13,0,0,1,.28.75A3.53,3.53,0,0,1,43.38,11a9.13,9.13,0,0,0,1.28-.28l.34-.09Z"/><path class="cls-2" d="M50.51,11.81a.8.8,0,0,1,.1.42,1.18,1.18,0,0,1-.23.8,4.69,4.69,0,0,1-1.32,1.09,3.72,3.72,0,0,1-1.85.52A2.86,2.86,0,0,1,45.11,14a2.68,2.68,0,0,1-.78-2,3.72,3.72,0,0,1,.34-1.66,3.05,3.05,0,0,1,1-1.23,2.6,2.6,0,0,1,1.49-.48,1.63,1.63,0,0,1,1.2.42,1.61,1.61,0,0,1,.47,1.19,2.08,2.08,0,0,1-.61,1.53A4.6,4.6,0,0,1,46.1,12.8a1.26,1.26,0,0,0,1.23.57,2.81,2.81,0,0,0,1.31-.43,4.35,4.35,0,0,0,1.26-1.08.45.45,0,0,1,.34-.19A.3.3,0,0,1,50.51,11.81Zm-4.33-1.38a2.58,2.58,0,0,0-.3,1.34v0a2.92,2.92,0,0,0,1.18-.56,1.06,1.06,0,0,0,.42-.84.56.56,0,0,0-.14-.39A.47.47,0,0,0,47,9.86.94.94,0,0,0,46.18,10.43Z"/><path class="cls-2" d="M49.74,14.11a4.92,4.92,0,0,1-.15-1.65,10.46,10.46,0,0,1,.56-3.16,1,1,0,0,1,.39-.54,1.34,1.34,0,0,1,.74-.15.73.73,0,0,1,.36.07.27.27,0,0,1,.1.25,4.89,4.89,0,0,1-.22.92q-.14.51-.23.89a9.17,9.17,0,0,0-.16.95,7.3,7.3,0,0,1,1-1.77A3.73,3.73,0,0,1,53.2,9a1.88,1.88,0,0,1,.94-.27.74.74,0,0,1,.81.86,10.34,10.34,0,0,1-.33,1.8,8.91,8.91,0,0,0-.29,1.47q0,.51.36.52a1,1,0,0,0,.62-.3,10.32,10.32,0,0,0,1-1,.45.45,0,0,1,.35-.17.3.3,0,0,1,.26.16.8.8,0,0,1,.08.43,1.18,1.18,0,0,1-.27.79,5.68,5.68,0,0,1-1.22,1.08,2.49,2.49,0,0,1-1.46.4,1.25,1.25,0,0,1-1-.41,1.61,1.61,0,0,1-.3-1.11A8,8,0,0,1,53,12a6.67,6.67,0,0,0,.2-1.11q0-.21-.14-.21t-.48.42a6.9,6.9,0,0,0-.65,1.12,8.84,8.84,0,0,0-.55,1.48,2,2,0,0,1-.35.81.74.74,0,0,1-.59.2A.7.7,0,0,1,49.74,14.11Z"/><path class="cls-2" d="M61.94,12.52A.8.8,0,0,1,62,13a1.18,1.18,0,0,1-.3.78,5.46,5.46,0,0,1-1.29,1,2.65,2.65,0,0,1-1.53.32q-2.61-.2-2.34-3.87,0-.56.12-1.14l-.5,0a.72.72,0,0,1-.51-.18.63.63,0,0,1-.1-.46q.05-.72.63-.67l.73.06a12.49,12.49,0,0,1,.86-2.52A5.83,5.83,0,0,1,59,4.46a1.85,1.85,0,0,1,1.42-.59,1,1,0,0,1,.81.54,2.15,2.15,0,0,1,.22,1.21A4.5,4.5,0,0,1,59.52,9L61,9.07a.41.41,0,0,1,.29.11.47.47,0,0,1,.06.34q-.07.88-1.51.77l-1.56-.12q-.07.64-.1,1a4,4,0,0,0,.17,1.89,1.07,1.07,0,0,0,1,.61,1.53,1.53,0,0,0,1-.26,7.79,7.79,0,0,0,1.07-.92.45.45,0,0,1,.36-.15A.3.3,0,0,1,61.94,12.52Zm-2.42-7A6.85,6.85,0,0,0,59,6.83a17.89,17.89,0,0,0-.49,1.86,4.39,4.39,0,0,0,1.24-1.38,3.57,3.57,0,0,0,.49-1.45q.06-.76-.22-.78T59.52,5.53Z"/><path class="cls-2" d="M61.11,14.74a2.29,2.29,0,0,1-.2-1.36,11.21,11.21,0,0,1,.34-1.74A11.07,11.07,0,0,1,61.87,10a1.07,1.07,0,0,1,.42-.51A1.27,1.27,0,0,1,63,9.41a.64.64,0,0,1,.38.14.33.33,0,0,1,.08.28,5.34,5.34,0,0,1-.22.67q-.18.46-.31.83a12.13,12.13,0,0,0-.47,1.76.8.8,0,0,0,0,.38.22.22,0,0,0,.19.13q.19,0,.52-.32A5.66,5.66,0,0,0,64,12.19a15.62,15.62,0,0,0,.86-1.84.83.83,0,0,1,1-.6.85.85,0,0,1,.4.12.28.28,0,0,1,.08.28,12.46,12.46,0,0,1-.53,1.71,14.23,14.23,0,0,0-.6,2,.61.61,0,0,0,.06.39.32.32,0,0,0,.25.17,1,1,0,0,0,.64-.24,10.31,10.31,0,0,0,1.06-.9.45.45,0,0,1,.37-.14.3.3,0,0,1,.24.18.8.8,0,0,1,0,.43,1.18,1.18,0,0,1-.34.76,5.68,5.68,0,0,1-1.31,1,2.49,2.49,0,0,1-1.49.26,1,1,0,0,1-.84-.58,2.58,2.58,0,0,1-.13-1.36A3,3,0,0,1,63,15a1.28,1.28,0,0,1-1,.35A1.1,1.1,0,0,1,61.11,14.74Z"/><path class="cls-2" d="M66.76,15.48a4.92,4.92,0,0,1,.08-1.65,10.46,10.46,0,0,1,1-3,1,1,0,0,1,.46-.48,1.34,1.34,0,0,1,.76,0,.73.73,0,0,1,.34.12.27.27,0,0,1,.06.26,4.89,4.89,0,0,1-.34.88q-.21.49-.35.85a9.19,9.19,0,0,0-.29.92,7.3,7.3,0,0,1,1.24-1.62,3.73,3.73,0,0,1,1.18-.8,1.88,1.88,0,0,1,1-.14.74.74,0,0,1,.68,1,6.46,6.46,0,0,1-.25.78,4.71,4.71,0,0,0-.21.62q-.08.44.24.5a1.54,1.54,0,0,0,1-.4.49.49,0,0,1,.37-.11.3.3,0,0,1,.24.19.71.71,0,0,1,0,.4,1,1,0,0,1-.38.69,3.48,3.48,0,0,1-.94.49,2.1,2.1,0,0,1-1.05.09,1.42,1.42,0,0,1-1-.51,1.25,1.25,0,0,1-.19-1,2,2,0,0,1,.1-.37q.07-.25.08-.34t-.11-.23q-.19,0-.57.34a6,6,0,0,0-.8,1,9.23,9.23,0,0,0-.74,1.39A2,2,0,0,1,68,16a.74.74,0,0,1-.61.11A.7.7,0,0,1,66.76,15.48Z"/><path class="cls-2" d="M78.55,15.48a.8.8,0,0,1,0,.43,1.18,1.18,0,0,1-.41.73,4.69,4.69,0,0,1-1.54.76,3.72,3.72,0,0,1-1.92.09,2.86,2.86,0,0,1-1.89-1.15,2.68,2.68,0,0,1-.31-2.12,3.72,3.72,0,0,1,.71-1.54,3.05,3.05,0,0,1,1.27-1A2.6,2.6,0,0,1,76,11.59a1.63,1.63,0,0,1,1.08.68,1.61,1.61,0,0,1,.19,1.27,2.08,2.08,0,0,1-.94,1.36,4.6,4.6,0,0,1-2.32.54,1.26,1.26,0,0,0,1.07.83,2.81,2.81,0,0,0,1.37-.12A4.35,4.35,0,0,0,78,15.37a.45.45,0,0,1,.38-.1A.3.3,0,0,1,78.55,15.48Zm-3.9-2.33a2.58,2.58,0,0,0-.6,1.24v0a2.92,2.92,0,0,0,1.28-.28,1.06,1.06,0,0,0,.6-.73.56.56,0,0,0-.05-.41.47.47,0,0,0-.33-.22A.94.94,0,0,0,74.65,13.15Z"/><path class="cls-2" d="M78.28,18.31a.91.91,0,0,1-.17-.76.79.79,0,0,1,.38-.5,1,1,0,0,1,.76-.06l.37.13.32.13a1.66,1.66,0,0,0,0-.65,3.16,3.16,0,0,0-.19-.64q-.13-.32-.25-.56a8.4,8.4,0,0,1-1.08,1,9.42,9.42,0,0,1-1.06.71.69.69,0,0,1-.53.1.42.42,0,0,1-.29-.23.54.54,0,0,1,0-.39.73.73,0,0,1,.29-.42l.21-.16a16.62,16.62,0,0,0,1.39-1.13,8.31,8.31,0,0,0,.67-.74L80,13a1,1,0,0,1,1.12-.3,1.35,1.35,0,0,1,.47.19.21.21,0,0,1,.09.23,1,1,0,0,1-.11.22,1.87,1.87,0,0,1-.22.29,1.83,1.83,0,0,0-.42.7.86.86,0,0,0,0,.44,4.8,4.8,0,0,0,.26.66,8.18,8.18,0,0,1,.38,1,1.67,1.67,0,0,1,0,.86,2.18,2.18,0,0,1-.5.93,2,2,0,0,1-.87.58,1.83,1.83,0,0,1-1.07,0A1.51,1.51,0,0,1,78.28,18.31Z"/><path class="cls-2" d="M92.63,18.65a.89.89,0,0,1,0,.43q-.19.59-.58.58a5.85,5.85,0,0,1-1.71-.23,3.21,3.21,0,0,1-1.45,1.34,2.37,2.37,0,0,1-1.75.11A2.28,2.28,0,0,1,86,20.12a2.36,2.36,0,0,1-.48-1.2,3.17,3.17,0,0,1,.15-1.36,3.92,3.92,0,0,1,.9-1.54,2.93,2.93,0,0,1,1.35-.82,2.59,2.59,0,0,1,1.51,0,2,2,0,0,1,1.29,1.13,2.89,2.89,0,0,1,.15,1.8,7.78,7.78,0,0,0,1.45.2l.18,0A.28.28,0,0,1,92.63,18.65Zm-4.24.87a1.86,1.86,0,0,0,.68-.79,1.77,1.77,0,0,1-.36-.86,2.09,2.09,0,0,1,.09-.95,2.23,2.23,0,0,1,.16-.38l-.06,0a1,1,0,0,0-1,.2,2.44,2.44,0,0,0-.76,1.22,1.79,1.79,0,0,0-.07,1.11.8.8,0,0,0,.5.56A.93.93,0,0,0,88.39,19.52Z"/><path class="cls-2" d="M96.6,21q-.35,1-1.85.4a4.89,4.89,0,0,1-.79-.42q-.12.81-.36,1.75a14.86,14.86,0,0,1-.45,1.54A4.09,4.09,0,0,1,92,26.07a1.35,1.35,0,0,1-1.36.28q-.87-.32-.78-1.69a14.82,14.82,0,0,1,1-3.85,24.29,24.29,0,0,1,2.24-4.51,14.9,14.9,0,0,1,2.83-3.43q1.45-1.24,2.5-.85a1.06,1.06,0,0,1,.7.83,2.7,2.7,0,0,1-.19,1.48q-1,2.83-5.67,4.91a22.07,22.07,0,0,0-.89,2q-.46,1.24-.86,2.58t-.21,1.41q.36.13.83-1.12a13.62,13.62,0,0,0,.55-1.87q.2-.93.34-2a.88.88,0,0,1,.25-.36,1.75,1.75,0,0,1,.44-.32.49.49,0,0,1,.37-.07l.57.24.25.11a8.14,8.14,0,0,0,1.1.31l.21.05.22.07Q96.79,20.46,96.6,21Zm.33-7.3a14.44,14.44,0,0,0-1.35,1.71q-.76,1.09-1.49,2.36A9.38,9.38,0,0,0,96.41,16a6.13,6.13,0,0,0,1.35-2q.27-.73,0-.85T96.93,13.66Z"/><path class="cls-3" d="M18.65,47.93a.78.78,0,0,1-.24-.57V26.31a.85.85,0,0,1,.23-.6.76.76,0,0,1,.58-.24h3.67a1.19,1.19,0,0,1,1.1.62l7.66,12.1V26.31a.85.85,0,0,1,.23-.6.76.76,0,0,1,.58-.24h4.12a.76.76,0,0,1,.58.24.85.85,0,0,1,.23.6v21a.85.85,0,0,1-.23.6.76.76,0,0,1-.58.24H32.91a1.19,1.19,0,0,1-1.1-.62L24.18,35.94V47.36a.76.76,0,0,1-.24.58.85.85,0,0,1-.6.23H19.22A.78.78,0,0,1,18.65,47.93Z"/><path class="cls-3" d="M42.65,45.39a4.91,4.91,0,0,1-1.89-4.09,4.76,4.76,0,0,1,.94-2.94,8.61,8.61,0,0,1,2.73-2.26,8.05,8.05,0,0,1-1.48-2,4.54,4.54,0,0,1-.45-2,4.49,4.49,0,0,1,.68-2.41,4.7,4.7,0,0,1,2-1.75,7.55,7.55,0,0,1,3.29-.65,6.71,6.71,0,0,1,3.06.65,4.86,4.86,0,0,1,2,1.73A4.32,4.32,0,0,1,54.22,32a4.13,4.13,0,0,1-1,2.71,9.74,9.74,0,0,1-2.8,2.19L53.57,40q.41-.68.73-1.32A10.85,10.85,0,0,0,55,37a.52.52,0,0,1,.57-.38h2.91a.51.51,0,0,1,.52.52,6.33,6.33,0,0,1-.9,2.54,18.63,18.63,0,0,1-1.9,2.9l3,3.13a.55.55,0,0,1,.19.38.46.46,0,0,1-.15.35.52.52,0,0,1-.37.14H55a1,1,0,0,1-.71-.27L53.1,45.21a7.36,7.36,0,0,1-2.42,1.26,10,10,0,0,1-2.91.39A8.09,8.09,0,0,1,42.65,45.39Zm7.82-3L47,38.87q-1.69.9-1.69,2.2A2,2,0,0,0,46,42.69a2.68,2.68,0,0,0,1.75.61A4,4,0,0,0,50.47,42.35Zm-.84-9a1.56,1.56,0,0,0,.54-1.18A1.44,1.44,0,0,0,49.69,31a1.73,1.73,0,0,0-1.21-.43,1.67,1.67,0,0,0-1.17.45,1.47,1.47,0,0,0-.49,1.13,2,2,0,0,0,.29,1,6.51,6.51,0,0,0,1,1.21A7,7,0,0,0,49.62,33.34Z"/><path class="cls-3" d="M62.6,47.93a.78.78,0,0,1-.24-.57V26.31a.85.85,0,0,1,.23-.6.76.76,0,0,1,.58-.24h4.35a.76.76,0,0,1,.58.24.85.85,0,0,1,.23.6v7.07l5.74-7.27a1.32,1.32,0,0,1,1.27-.65h5a.72.72,0,0,1,.68.68.53.53,0,0,1-.13.39l-7.56,9.8L81.46,47.1a.53.53,0,0,1,.13.39.65.65,0,0,1-.21.47.69.69,0,0,1-.5.21H75.79a1.52,1.52,0,0,1-.84-.21,1.35,1.35,0,0,1-.45-.44l-6.16-7.91v7.75a.81.81,0,0,1-.23.57.76.76,0,0,1-.58.24H63.17A.78.78,0,0,1,62.6,47.93Z"/></svg>