<svg id="Layer_1" data-name="Layer 1" xmlns="http://www.w3.org/2000/svg" viewBox="0 0 100 50"><defs><style>.cls-1{fill:#fff;}.cls-2{fill:#e24444;}</style></defs><title>Artboard 1</title><path class="cls-1" d="M13.93,41.72h-.19a1.75,1.75,0,0,1-1.26-.76,13.69,13.69,0,0,1-.83-1.43c-.34-.65-.7-1.35-1.05-2.08s-.65-1.36-.92-1.87c-.46-.9-.91-1.82-1.33-2.73s-.81-1.78-1.17-2.6l-.27-.6A12.67,12.67,0,0,0,5.43,31a2.54,2.54,0,0,0-.69,1.14.91.91,0,0,0,.19.71,1.61,1.61,0,0,0,.74.56l0,0a1.28,1.28,0,0,1,.51.42,1.55,1.55,0,0,1,.14,1.45,2.22,2.22,0,0,1-.82,1.14,1.5,1.5,0,0,1-.88.29H4.49a3.11,3.11,0,0,1-1.37-.5A4.36,4.36,0,0,1,1.91,35a4.17,4.17,0,0,1-.78-3.36,7.62,7.62,0,0,1,2-3.46,29.24,29.24,0,0,1,4.49-3.79c1.17-.83,2.14-1.49,2.88-2a19.83,19.83,0,0,1,2.05-1.13,2.69,2.69,0,0,1,1.11-.27l.28,0a1.63,1.63,0,0,1,1.11.67,1.81,1.81,0,0,1,.35,1.57,2.24,2.24,0,0,1-1.11,1.27c-1,.6-1.79,1.08-2.34,1.43s-1,.65-1.65,1.1c.92,2,1.88,4.11,2.87,6.13.39.79.86,1.72,1.41,2.76s1,1.86,1.36,2.45a1.8,1.8,0,0,1,.18,1.58,2.45,2.45,0,0,1-.93,1.19,2.23,2.23,0,0,1-1.29.46Z"/><path class="cls-1" d="M20.16,37.46a2.24,2.24,0,0,1-.87-.18,4.58,4.58,0,0,1-1.81-1.64c-1.08-1.5-2-2.86-2.7-4L14.42,31a1.79,1.79,0,0,1-.21-1.58,2.28,2.28,0,0,1,1-1.08,1.93,1.93,0,0,1,1-.31l.28,0a1.65,1.65,0,0,1,1.06.85c.43.73,1,1.57,1.61,2.52-.16-1.13-.34-2.27-.56-3.41a2.23,2.23,0,0,1,.09-1.38,2,2,0,0,1,.8-.86,1.88,1.88,0,0,1,1-.31,1.23,1.23,0,0,1,.32,0,1.73,1.73,0,0,1,1,.87c.52.88,1.2,1.92,2,3.12q0-.44,0-.81a3.85,3.85,0,0,1-.85-1,3.73,3.73,0,0,1-.51-1.55,3.42,3.42,0,0,1,.21-1.62,2.54,2.54,0,0,1,1.08-1.28,1.92,1.92,0,0,1,1-.29,1.89,1.89,0,0,1,.58.09,2.4,2.4,0,0,1,1.29,1.13,5,5,0,0,1,.48,1.1l.19-.16c0-.16,0-.31,0-.46A5.23,5.23,0,0,1,27.85,22a4.44,4.44,0,0,1,1.92-1.85,4.22,4.22,0,0,1,1.92-.49,3.73,3.73,0,0,1,.53,0,4.27,4.27,0,0,1,2.14.95,5.71,5.71,0,0,1,1.46,1.84,6.71,6.71,0,0,1,.77,2.93A5.27,5.27,0,0,1,36,28.1,4.45,4.45,0,0,1,34,29.94a4.19,4.19,0,0,1-1.9.49h0a3.67,3.67,0,0,1-.54,0,4.3,4.3,0,0,1-2.12-1,5.46,5.46,0,0,1-.86-.89l-.19.12a6.4,6.4,0,0,1-1.18.56c0,.58,0,1.18-.09,1.8a7.4,7.4,0,0,1-.42,2.22,2.78,2.78,0,0,1-1.16,1.33,2.15,2.15,0,0,1-1.11.33,2,2,0,0,1-.88-.21,3.33,3.33,0,0,1-.92-.69v.11a4.15,4.15,0,0,1-.27,1.83,2.63,2.63,0,0,1-1.08,1.18A2.25,2.25,0,0,1,20.16,37.46Zm11.2-14.13a.29.29,0,0,0-.14,0c-.09,0-.29.15-.33.61a3.25,3.25,0,0,0,.48,1.71,2.09,2.09,0,0,0,.78,1,.66.66,0,0,0,.29.08.42.42,0,0,0,.19-.05c.07,0,.25-.13.29-.6a3.4,3.4,0,0,0-.48-1.71,2.1,2.1,0,0,0-.78-1A.71.71,0,0,0,31.36,23.33Z"/><path class="cls-1" d="M64.48,27.34A2.78,2.78,0,0,1,63,26.95a2.86,2.86,0,0,1-1.32-1.86,5.37,5.37,0,0,1,0-2.22,9.08,9.08,0,0,1,1.08-2.73,18.87,18.87,0,0,1,1-1.61,2.32,2.32,0,0,1-1.85-.48l-.12.16a4.63,4.63,0,0,1-2.29,1.52,3.83,3.83,0,0,1-1.12.17,3.45,3.45,0,0,1-2.49-1.1,9.34,9.34,0,0,1-2.15-3.93q-.14-.44-.26-.92a2.36,2.36,0,0,1-1.12.82l-2.56,1,.05.23a8.51,8.51,0,0,1,0,5.37,5.63,5.63,0,0,1-3.36,3,6.07,6.07,0,0,1-2.17.41,5.83,5.83,0,0,1-.65,0,4.87,4.87,0,0,1-2.38-.85,2.14,2.14,0,0,1-.73-1,2.19,2.19,0,0,1-.11-1.24,1.35,1.35,0,0,1,.83-1,1.42,1.42,0,0,1,.51-.09,1.65,1.65,0,0,1,.39,0,3.65,3.65,0,0,1,1,.44,2.39,2.39,0,0,0,1.27.41,2,2,0,0,0,.73-.14,1.63,1.63,0,0,0,1-1.09A4.82,4.82,0,0,0,46,17.51l-.08-.29-.15.06a2,2,0,0,1-.72.14,1.85,1.85,0,0,1-.56-.09,1.56,1.56,0,0,1-1-1,2,2,0,0,1,0-1.51,1.9,1.9,0,0,1,1.14-1l.41-.16c-.28-1.05-.61-2.27-1-3.63a5.47,5.47,0,0,0-1.55,1.13.88.88,0,0,0-.17,1,1.61,1.61,0,0,0,.58.73,1.31,1.31,0,0,1,.48.6,1.42,1.42,0,0,1-.23,1.37,2.24,2.24,0,0,1-1.05.81,2.17,2.17,0,0,1-.78.15,2,2,0,0,1-.66-.11,2.46,2.46,0,0,1-1-.8,4.73,4.73,0,0,1-.81-1.39,4.39,4.39,0,0,1,1.24-4.94,19.35,19.35,0,0,1,6.67-3.79A44.22,44.22,0,0,1,52.43,3,2.62,2.62,0,0,1,53,2.91h.1A3.76,3.76,0,0,1,55.52.11a2.35,2.35,0,0,1,2.34.55,5.39,5.39,0,0,1,1.45,2.56A15,15,0,0,1,59.68,9a30.57,30.57,0,0,1-1.51,6.72,1.19,1.19,0,0,0,.36.42.31.31,0,0,0,.17,0l.16,0a1.57,1.57,0,0,0,.85-.59,6.82,6.82,0,0,0,.55-1A16.34,16.34,0,0,1,60,12.92a17.67,17.67,0,0,1,0-2.79,2.33,2.33,0,0,1,.5-1.35A2.56,2.56,0,0,1,61.91,8,2.29,2.29,0,0,1,62.45,8a1.24,1.24,0,0,1,.54.11,1.19,1.19,0,0,1,.64.83,6,6,0,0,1,.06,1.24c0,.5,0,.94,0,1.32s.06,1,.1,1.53c0,.23,0,.43.07.62a9.54,9.54,0,0,0,.35-1.55,23.26,23.26,0,0,0,.24-3,2.22,2.22,0,0,1,.42-1.35A2.22,2.22,0,0,1,66.13,7a2.56,2.56,0,0,1,.61-.08,1.27,1.27,0,0,1,.44.07,1.12,1.12,0,0,1,.71.83,28.11,28.11,0,0,1,.32,3.52l.12,1.47.8-.91a16.4,16.4,0,0,1,0-3.94,2.16,2.16,0,0,1,.64-1.34A2.68,2.68,0,0,1,71.25,6a2.63,2.63,0,0,1,.44,0,1.3,1.3,0,0,1,.5.09,1.08,1.08,0,0,1,.65.87,2.29,2.29,0,0,1,0,.37,5.29,5.29,0,0,1,1-1.18,3.56,3.56,0,0,1,1.66-.84,2.77,2.77,0,0,1,.47,0,1.78,1.78,0,0,1,1.82,1.66,16.09,16.09,0,0,1,.05,2.94,12.37,12.37,0,0,0,0,2.14v0a1.93,1.93,0,0,0,.28-.3,10.39,10.39,0,0,0,.63-.92,16.54,16.54,0,0,1,.33-4.42,2.16,2.16,0,0,1,.74-1.28,2.68,2.68,0,0,1,1.47-.52h.29a1.44,1.44,0,0,1,.65.13,1.08,1.08,0,0,1,.58.92,2.27,2.27,0,0,1,0,.37A5.29,5.29,0,0,1,84,4.84a3.57,3.57,0,0,1,1.71-.71h.28a1.8,1.8,0,0,1,1.88,1.8,16.12,16.12,0,0,1-.17,2.94A12.33,12.33,0,0,0,87.5,11v0a1.91,1.91,0,0,0,.3-.27A15.16,15.16,0,0,0,89,9.12l0,0,0,0c.17-.25.32-.47.44-.68a12,12,0,0,0,.64-1.29c.22-.52.52-1.24.89-2.14a2.16,2.16,0,0,1,2.16-1.34h.14a2.35,2.35,0,0,1,.91.14,1,1,0,0,1,.65.94,2,2,0,0,1-.1.58,3.58,3.58,0,0,1-.25.64,2.05,2.05,0,0,0-.25.87.64.64,0,0,0,.12.29,6.73,6.73,0,0,0,.59.78,13.28,13.28,0,0,1,1.05,1.48,3.25,3.25,0,0,1,.45,1.6,4,4,0,0,1-.42,1.89,3.82,3.82,0,0,1-1.27,1.48,3.49,3.49,0,0,1-1.94.61h-.12a2.92,2.92,0,0,1-1.92-.6,2.11,2.11,0,0,1-.8-1.39,8.23,8.23,0,0,1-.78.75,4.51,4.51,0,0,1-2.52,1l-.36,0a2.46,2.46,0,0,1-1.75-.64A3.14,3.14,0,0,1,83.78,12a11,11,0,0,1,.06-1.8l-.18.5a12.83,12.83,0,0,0-.53,2.21,3.57,3.57,0,0,1-.51,1.6,1.8,1.8,0,0,1-1.36.69h-.19a1.69,1.69,0,0,1-1.33-.62,4.52,4.52,0,0,1-2.31,1.11,3.59,3.59,0,0,1-.6.05,2.39,2.39,0,0,1-1.54-.51,3.14,3.14,0,0,1-1-2,11,11,0,0,1-.08-1.8q-.07.24-.14.51a12.85,12.85,0,0,0-.36,2.25,3.56,3.56,0,0,1-.38,1.63,1.8,1.8,0,0,1-1.3.79l-.33,0a1.76,1.76,0,0,1-1.56-1l-.06-.1-1.4,1.53a23.55,23.55,0,0,1-.41,6.57c-.48,2-1.47,3.14-2.94,3.5A3.43,3.43,0,0,1,64.48,27.34ZM65.18,22l-.12.31a3.43,3.43,0,0,0-.23,1.34,4.54,4.54,0,0,0,.18-.56A7.52,7.52,0,0,0,65.18,22ZM47.84,8.35c.38,1.32.73,2.57,1,3.74l2.39-1a2.76,2.76,0,0,1,1-.21,1.36,1.36,0,0,1,.58.12l.09,0q-.12-.84-.21-1.74a23.14,23.14,0,0,1-.11-2.57l-.13,0c-.74.21-1.47.44-2.18.67s-1.46.5-2.23.79Zm44.22,1.9-.32.53a3.06,3.06,0,0,1,.45,0h.18A4.16,4.16,0,0,0,92.06,10.25ZM56.12,4.09c0,.16,0,.34,0,.56a26.1,26.1,0,0,0,.22,4q.07.55.15,1.1.09-.77.13-1.53a12,12,0,0,0-.41-4Z"/><path d="M14,36.36q-.82-1.57-1.42-2.78-1.62-3.32-3.11-6.68,1.32-.91,2.16-1.45T13.95,24a1.61,1.61,0,0,0,.8-.86,1.14,1.14,0,0,0-.25-1,.93.93,0,0,0-.64-.38,1.77,1.77,0,0,0-1,.19,19,19,0,0,0-2,1.09Q9.8,23.76,8,25A28.43,28.43,0,0,0,3.66,28.7a6.92,6.92,0,0,0-1.84,3.12,3.48,3.48,0,0,0,.66,2.81,3.64,3.64,0,0,0,1,1,2.44,2.44,0,0,0,1.08.4.78.78,0,0,0,.56-.16,1.52,1.52,0,0,0,.56-.79.89.89,0,0,0,0-.82.59.59,0,0,0-.23-.19,2.31,2.31,0,0,1-1.06-.81A1.61,1.61,0,0,1,4,32a3.24,3.24,0,0,1,.86-1.49,16.21,16.21,0,0,1,2.28-2l.35.8.28.63Q8.35,31.19,9,32.55t1.31,2.7q.42.79.93,1.89t1,2.06a13.3,13.3,0,0,0,.78,1.35,1,1,0,0,0,.76.47,1.45,1.45,0,0,0,1-.32,1.76,1.76,0,0,0,.67-.85,1.1,1.1,0,0,0-.12-1Q14.8,37.93,14,36.36Z"/><path d="M33.9,21.2a3.56,3.56,0,0,0-1.79-.79,3.36,3.36,0,0,0-2,.38,3.73,3.73,0,0,0-1.62,1.56,4.51,4.51,0,0,0-.53,2.31,5.34,5.34,0,0,0,.07.75,13.13,13.13,0,0,1-1.38,1.12,5.38,5.38,0,0,0-.63-2,1.72,1.72,0,0,0-.9-.82,1.17,1.17,0,0,0-1,.13,1.85,1.85,0,0,0-.79.93,2.71,2.71,0,0,0-.17,1.29,3,3,0,0,0,.41,1.26,2.91,2.91,0,0,0,.95,1q0,1.19-.08,3.29-2.09-3-3.25-4.89a1.1,1.1,0,0,0-.57-.55,1,1,0,0,0-.74.19,1.28,1.28,0,0,0-.52.55,1.59,1.59,0,0,0,0,.95q.6,3.18.9,6.27-2.09-3-3.25-4.89a1,1,0,0,0-.6-.52,1.09,1.09,0,0,0-.76.19,1.63,1.63,0,0,0-.73.73,1.12,1.12,0,0,0,.16,1l.35.59q1.06,1.77,2.67,4a4,4,0,0,0,1.51,1.4A1.48,1.48,0,0,0,21,36.52a1.93,1.93,0,0,0,.8-.86A3.53,3.53,0,0,0,22,34.14a18.84,18.84,0,0,0-.36-2.71l.82,1.18a4.32,4.32,0,0,0,1.46,1.46A1.33,1.33,0,0,0,25.22,34a2.08,2.08,0,0,0,.87-1,6.84,6.84,0,0,0,.37-2q.08-1.19.1-2.28a5.5,5.5,0,0,0,1.52-.63,6.55,6.55,0,0,0,.73-.51,4.92,4.92,0,0,0,1.12,1.34,3.59,3.59,0,0,0,1.78.8,3.31,3.31,0,0,0,2-.38,3.74,3.74,0,0,0,1.62-1.56,4.55,4.55,0,0,0,.55-2.32,6,6,0,0,0-.7-2.62A5,5,0,0,0,33.9,21.2Zm-.27,5A1.33,1.33,0,0,1,33,27.33a1.18,1.18,0,0,1-1.11,0A2.78,2.78,0,0,1,30.75,26a4,4,0,0,1-.55-2.1,1.36,1.36,0,0,1,.72-1.17A1.14,1.14,0,0,1,32,22.8a2.79,2.79,0,0,1,1.09,1.27A4,4,0,0,1,33.63,26.17Z"/><path d="M95.48,9.69a12.49,12.49,0,0,0-1-1.38,7.35,7.35,0,0,1-.66-.87,1.31,1.31,0,0,1-.22-.64,2.8,2.8,0,0,1,.32-1.2,2.85,2.85,0,0,0,.2-.51,1.45,1.45,0,0,0,.07-.37A.33.33,0,0,0,94,4.4a2.06,2.06,0,0,0-.77-.08,1.51,1.51,0,0,0-1.53.9q-.56,1.37-.9,2.16a12.66,12.66,0,0,1-.68,1.37q-.2.33-.48.74l0,0a15.73,15.73,0,0,1-1.29,1.69,1.53,1.53,0,0,1-.88.57q-.57.05-.64-.73A13.57,13.57,0,0,1,87,8.77,15.76,15.76,0,0,0,87.13,6a1.13,1.13,0,0,0-1.39-1.15,2.87,2.87,0,0,0-1.37.58,5.68,5.68,0,0,0-1.43,1.65,11.14,11.14,0,0,0-1.19,2.87,14.11,14.11,0,0,1,.06-1.46q.06-.6.18-1.4a7.48,7.48,0,0,0,.16-1.43A.41.41,0,0,0,82,5.29a1.11,1.11,0,0,0-.56,0,2,2,0,0,0-1.1.37,1.47,1.47,0,0,0-.5.88,15.83,15.83,0,0,0-.3,4.45,12.14,12.14,0,0,1-.79,1.17,1.53,1.53,0,0,1-.84.63q-.56.1-.69-.68a13.6,13.6,0,0,1,0-2.28,15.76,15.76,0,0,0,0-2.8,1.13,1.13,0,0,0-1.47-1,2.87,2.87,0,0,0-1.32.69A5.69,5.69,0,0,0,73,8.39a11.14,11.14,0,0,0-1,2.95A14,14,0,0,1,72,9.88q0-.6.08-1.41A7.46,7.46,0,0,0,72.15,7a.41.41,0,0,0-.22-.34,1.1,1.1,0,0,0-.56,0,2,2,0,0,0-1.07.45,1.47,1.47,0,0,0-.43.92,15.72,15.72,0,0,0,0,4.08q-1,1.14-2.1,2.43l-.25-3.19Q67.32,8.47,67.2,8a.44.44,0,0,0-.26-.34,1.2,1.2,0,0,0-.64,0,1.55,1.55,0,0,0-.88.48,1.54,1.54,0,0,0-.27.93,23.82,23.82,0,0,1-.24,3.09,8.64,8.64,0,0,1-.49,2q-.29.68-.57.75t-.58-.63a8,8,0,0,1-.17-1.2Q63,12.32,63,11.5q0-.6,0-1.35a8.1,8.1,0,0,0,0-1.08.5.5,0,0,0-.26-.36,1,1,0,0,0-.61,0,1.93,1.93,0,0,0-1,.51,1.64,1.64,0,0,0-.33.95,16.86,16.86,0,0,0,0,2.68A16,16,0,0,0,61,14.75,8.25,8.25,0,0,1,60.28,16a2.27,2.27,0,0,1-1.22.85,1.06,1.06,0,0,1-.89-.09,2.27,2.27,0,0,1-.77-1A29.94,29.94,0,0,0,59,9a14.27,14.27,0,0,0-.34-5.55A4.78,4.78,0,0,0,57.4,1.18a1.66,1.66,0,0,0-1.67-.4q-1.59.49-2.11,2.94l0,.14a.85.85,0,0,0-.18-.15,1.15,1.15,0,0,0-.82,0A43.33,43.33,0,0,0,47,5.43a18.88,18.88,0,0,0-6.43,3.63,3.67,3.67,0,0,0-1.08,4.19,4,4,0,0,0,.68,1.19,1.9,1.9,0,0,0,.71.59,1.35,1.35,0,0,0,1,0,1.54,1.54,0,0,0,.73-.56.75.75,0,0,0,.15-.72.63.63,0,0,0-.24-.29,2.31,2.31,0,0,1-.82-1.05,1.57,1.57,0,0,1,.29-1.66A8,8,0,0,1,44.46,9q.84,3,1.39,5.07l-1,.4a1.23,1.23,0,0,0-.75.63,1.28,1.28,0,0,0,0,1,.87.87,0,0,0,.56.56,1.21,1.21,0,0,0,.81,0l.88-.34.27,1a5.44,5.44,0,0,1,.12,3,2.34,2.34,0,0,1-1.42,1.52,2.83,2.83,0,0,1-2.62-.32A3.12,3.12,0,0,0,42,21.2a.8.8,0,0,0-.49,0,.65.65,0,0,0-.4.53,1.49,1.49,0,0,0,.08.85,1.44,1.44,0,0,0,.49.67,4.17,4.17,0,0,0,2,.72,5.25,5.25,0,0,0,2.49-.33,4.93,4.93,0,0,0,3-2.6,8,8,0,0,0,0-4.93L49,15.3l3.13-1.2a1.53,1.53,0,0,0,.91-.76,1.4,1.4,0,0,0,0-1.12,1,1,0,0,0-.47-.55,1.36,1.36,0,0,0-1,.11L48.41,13Q47.8,10.72,47,7.93l.82-.31q1.17-.45,2.26-.8t2.21-.67l.66-.19a2.38,2.38,0,0,0,.41-.17,21.11,21.11,0,0,0,.07,3.49,27.86,27.86,0,0,0,1,5.39,8.62,8.62,0,0,0,2,3.64,2.72,2.72,0,0,0,2.9.75,3.92,3.92,0,0,0,2-1.29,7.69,7.69,0,0,0,.56-.81,2.9,2.9,0,0,0,.37.4,1.68,1.68,0,0,0,1.59.45A2.06,2.06,0,0,0,65,16.74a5,5,0,0,0,.56-2.35q.15,1.36.19,2.09l.05.45a25.91,25.91,0,0,0-2.47,3.54,8.51,8.51,0,0,0-1,2.51,4.66,4.66,0,0,0,0,1.93,2.17,2.17,0,0,0,1,1.42,2.22,2.22,0,0,0,1.73.21q1.81-.44,2.43-3a23.3,23.3,0,0,0,.38-6.66l2.36-2.58a4.5,4.5,0,0,0,.42,1,1.07,1.07,0,0,0,1.17.59,1.13,1.13,0,0,0,.82-.47A3.06,3.06,0,0,0,73,14.19a13.48,13.48,0,0,1,.38-2.37A10.52,10.52,0,0,1,74,9.95q.34-.72.59-.77t.27.27a10.16,10.16,0,0,1,0,1.72,12.2,12.2,0,0,0,.06,2,2.46,2.46,0,0,0,.79,1.56,1.9,1.9,0,0,0,1.59.31,3.8,3.8,0,0,0,2.06-1,7.71,7.71,0,0,0,.53-.58,3.15,3.15,0,0,0,.17.43,1.07,1.07,0,0,0,1.12.68,1.13,1.13,0,0,0,.86-.41,3.06,3.06,0,0,0,.38-1.29A13.48,13.48,0,0,1,83,10.5a10.52,10.52,0,0,1,.77-1.82q.4-.7.65-.72t.24.29A10.16,10.16,0,0,1,84.57,10a12.22,12.22,0,0,0-.09,2,2.46,2.46,0,0,0,.67,1.62A1.9,1.9,0,0,0,86.7,14a3.8,3.8,0,0,0,2.13-.87,8.46,8.46,0,0,0,1.43-1.56c.17-.21.34-.41.5-.63A12.81,12.81,0,0,0,91.93,9q.28.31.61.72a4.82,4.82,0,0,1,.54.86,2.53,2.53,0,0,1,.25,1l-.52-.06a4.34,4.34,0,0,0-.6,0,1.49,1.49,0,0,0-1.09.4,1.21,1.21,0,0,0-.35.89,1.38,1.38,0,0,0,.56,1,2.3,2.3,0,0,0,1.57.43,2.79,2.79,0,0,0,1.56-.49,3.11,3.11,0,0,0,1-1.21,3.33,3.33,0,0,0,.35-1.57A2.55,2.55,0,0,0,95.48,9.69ZM55.61,8.77a26.66,26.66,0,0,1-.22-4.15q.07-1.72.5-1.85t1,1.26a12.6,12.6,0,0,1,.44,4.26,25.26,25.26,0,0,1-.78,5A29.18,29.18,0,0,1,55.61,8.77ZM65.68,23.29q-.32,1.25-.8,1.36a.45.45,0,0,1-.46-.11,1.06,1.06,0,0,1-.25-.5,3.53,3.53,0,0,1,.22-1.94A11.14,11.14,0,0,1,66,19.33,16.62,16.62,0,0,1,65.68,23.29Z"/><path class="cls-1" d="M21.28,49.55l-.29,0a2.91,2.91,0,0,1-1.46-.6,3.67,3.67,0,0,1-1-1.21,4.37,4.37,0,0,1-.53-1.9A3.44,3.44,0,0,1,18.41,44a3.12,3.12,0,0,1,1.3-1.27A2.71,2.71,0,0,1,21,42.43a2.54,2.54,0,0,1,.9.17,3.25,3.25,0,0,1,1,.65c-.05-.25-.1-.51-.13-.75a1.59,1.59,0,0,1,.2-1.07,1.93,1.93,0,0,1,.86-.71,1.41,1.41,0,0,1,.6-.15h.11a.89.89,0,0,1,.52.26,3,3,0,0,1,.22-.38,2.45,2.45,0,0,1,1-.85,1.66,1.66,0,0,1,.7-.17,1.31,1.31,0,0,1,.45.08,1.47,1.47,0,0,1,.82.81,8.93,8.93,0,0,1,.41,1.22c.13.47.27.9.4,1.31a12.75,12.75,0,0,0,.52,1.28,1.6,1.6,0,0,1,.14,1.19,1.47,1.47,0,0,1-.84.85,1.64,1.64,0,0,1-.69.17h0a1.23,1.23,0,0,1-.5-.1,1.45,1.45,0,0,1-.65-.58,2.08,2.08,0,0,1,0,.9,1.5,1.5,0,0,1-1.37,1,1.41,1.41,0,0,1-1-.43,3,3,0,0,1-.42-.52,3.42,3.42,0,0,1-.21,1,3,3,0,0,1-2.76,2ZM21,46.11l.09.17a1,1,0,0,0,.38.46l.09,0a.27.27,0,0,0,.06-.13.63.63,0,0,0,0-.21A2.38,2.38,0,0,1,21,46.11Z"/><path class="cls-1" d="M34,43.8a2.13,2.13,0,0,1-1-.28A2.84,2.84,0,0,1,31.71,42a4.61,4.61,0,0,1-.29-2.18,4.49,4.49,0,0,1,.71-2,3.36,3.36,0,0,1,1.6-1.32,1.39,1.39,0,0,1,.51-.11.94.94,0,0,1,.44.1l.09.05.08,0a1.62,1.62,0,0,1,.59-.12,1.06,1.06,0,0,1,1,.7,2.52,2.52,0,0,1,.09.3q0-.34,0-.69a1.58,1.58,0,0,1,.31-1,1.93,1.93,0,0,1,.92-.61,1.55,1.55,0,0,1,.51-.1l.22,0a.89.89,0,0,1,.49.31,3,3,0,0,1,.26-.36,2.44,2.44,0,0,1,1-.75,1.74,1.74,0,0,1,.57-.1,1.32,1.32,0,0,1,.58.13,1.47,1.47,0,0,1,.73.89,9.72,9.72,0,0,1,.29,1.26c.08.48.17.93.27,1.34A12.77,12.77,0,0,0,43.08,39a1.6,1.6,0,0,1,0,1.19,1.47,1.47,0,0,1-.92.76,1.73,1.73,0,0,1-.56.1h0a1.25,1.25,0,0,1-.62-.16,1.45,1.45,0,0,1-.58-.65,2.08,2.08,0,0,1-.11.89,1.36,1.36,0,0,1-.87.76A1.4,1.4,0,0,1,39,42a1.29,1.29,0,0,1-.54-.12,2.29,2.29,0,0,1-1,.76,1.78,1.78,0,0,1-.65.12,1.93,1.93,0,0,1-.59-.1L36,42.58a2.3,2.3,0,0,1-1.19,1A2.34,2.34,0,0,1,34,43.8Z"/><path class="cls-1" d="M47.74,39.12a2.11,2.11,0,0,1-1.23-.39,2.84,2.84,0,0,1-1.08-1.63,4.61,4.61,0,0,1-.07-2.2A4.49,4.49,0,0,1,46.26,33,3.36,3.36,0,0,1,48,31.8a1.5,1.5,0,0,1,.4-.06,1,1,0,0,1,.54.15l.08.06.08,0a1.74,1.74,0,0,1,.47-.07,1.07,1.07,0,0,1,1.07.8,5.93,5.93,0,0,1,.14,1l0-.21a4.34,4.34,0,0,1,.93-1.86,4,4,0,0,1,1.19-.94,15.15,15.15,0,0,1,0-3.73c.21-1.48.81-2.34,1.8-2.57a1.73,1.73,0,0,1,.4,0,1.76,1.76,0,0,1,1.16.46,3,3,0,0,1,.88,1.67,9.78,9.78,0,0,1,.12,3.23,2.31,2.31,0,0,1,.38-.11,1.77,1.77,0,0,1,.33,0,1.22,1.22,0,0,1,.65.17,1.19,1.19,0,0,1,.51.7,2.33,2.33,0,0,1,.47-.82,1.82,1.82,0,0,1,1-.59l.29,0a1.4,1.4,0,0,1,.87.3,1.61,1.61,0,0,1,.54.82,3.46,3.46,0,0,1,.71-.93,3.13,3.13,0,0,1,1.69-.8,2.75,2.75,0,0,1,.41,0,2.12,2.12,0,0,1,1.27.4,2,2,0,0,1,.55.6l0-.12a1.59,1.59,0,0,1,.54-.95,1.93,1.93,0,0,1,1-.39h.22a1.12,1.12,0,0,1,.5.1.88.88,0,0,1,.41.41,3,3,0,0,1,.34-.29,2.44,2.44,0,0,1,1.18-.5h.22a1.44,1.44,0,0,1,.79.22,1.19,1.19,0,0,1,.9-.46h.09a11.92,11.92,0,0,1,.43-2,6.15,6.15,0,0,1,1-2,2.4,2.4,0,0,1,1.74-1h.11a1.59,1.59,0,0,1,1.31.68,2.7,2.7,0,0,1,.49,1.47A4.64,4.64,0,0,1,77.8,27a1,1,0,0,1,.61.24l.11.12h0A1.82,1.82,0,0,1,79.61,27h0a1.2,1.2,0,0,1,.77.23,1,1,0,0,1,.37.71,1.5,1.5,0,0,1,.45-.66,1.62,1.62,0,0,1,1-.33h.05a1.35,1.35,0,0,1,.7.15,1,1,0,0,1,.46.84,4,4,0,0,1-.07.69q.08-.27.17-.53a1.58,1.58,0,0,1,.66-.86,1.87,1.87,0,0,1,1-.25h.09a1.3,1.3,0,0,1,.7.19.89.89,0,0,1,.35.47,3,3,0,0,1,.37-.24,2.49,2.49,0,0,1,1.18-.33H88a1.35,1.35,0,0,1,1.42,1.25,3.45,3.45,0,0,1,.74-.56,3.1,3.1,0,0,1,1.55-.41H92A2.13,2.13,0,0,1,94,29.81a2.67,2.67,0,0,1-.3,1,1,1,0,0,1,.54.48,1.42,1.42,0,0,1,.13.78,2,2,0,0,1-.41,1.1,3,3,0,0,1-1.22.95,3.29,3.29,0,0,1-1.3.25h-.35a3,3,0,0,1-2.22-1.1,2.89,2.89,0,0,1-.47-.87h-.2a2,2,0,0,1-1.44-.57,1.74,1.74,0,0,1-.32-.47A8,8,0,0,0,86,32.61a2.42,2.42,0,0,1-.49,1,1.35,1.35,0,0,1-1,.4h-.06a1.31,1.31,0,0,1-.94-.42A3,3,0,0,1,82,34h0a1.63,1.63,0,0,1-1.27-.55,1.84,1.84,0,0,1-1.29.6h0a1.7,1.7,0,0,1-1.2-.46,3.18,3.18,0,0,1-1.67.57h-.25a2.74,2.74,0,0,1-2.09-.86,5.37,5.37,0,0,1-.47.45,3,3,0,0,1-1.68.71l-.27,0a1.78,1.78,0,0,1-1.23-.45,1.88,1.88,0,0,1-.5-.77,2.3,2.3,0,0,1-.33,1,1.36,1.36,0,0,1-1,.55h-.16a1.29,1.29,0,0,1-.92-.37,4.18,4.18,0,0,1-1.86.76,4.66,4.66,0,0,1-.69.05,3.09,3.09,0,0,1-1.86-.56,2.92,2.92,0,0,1-1-1.19,4.28,4.28,0,0,1-.59.06c-.11.28-.24.56-.37.85a4.67,4.67,0,0,1-.77,1.27,2,2,0,0,1-1.11.6,1.83,1.83,0,0,1-.34,0,1.58,1.58,0,0,1-1-.32,2.62,2.62,0,0,1-1.32.81,2.11,2.11,0,0,1-.48.06,2,2,0,0,1-1.11-.34,2.61,2.61,0,0,1-.35.42,2.57,2.57,0,0,1-1.68.65,2.16,2.16,0,0,1-.94-.21,2.38,2.38,0,0,1-1.18.81,1.79,1.79,0,0,1-.48.07,1.89,1.89,0,0,1-.76-.16l-.16-.08a2.3,2.3,0,0,1-1.29.92A2.42,2.42,0,0,1,47.74,39.12ZM53.58,34a2.06,2.06,0,0,0,0,.74v0c0-.06.08-.14.13-.26S53.64,34.22,53.58,34Zm2.86-.3a2.7,2.7,0,0,0,.14.33l0,0a5.25,5.25,0,0,0,.33-.54q-.11-.43-.2-.83Q56.6,33.18,56.44,33.74ZM76,30a3,3,0,0,0,.28,1.38.28.28,0,0,0,.28.13h.05a.73.73,0,0,0,.46-.19,4.39,4.39,0,0,0,.37-.38c0-.34,0-.67.09-1q0-.19.06-.39a3.5,3.5,0,0,1-.83.14l-.78,0Q76,29.85,76,30Zm-3.14-.1c0,.24,0,.52-.07.84s0,.39-.05.54l.39-.56,0-.05c0-.12,0-.23,0-.34s0-.25,0-.38Zm10.12,1,0,0,0-.23Z"/><path class="cls-1" d="M96.11,32l-.23,0a1.37,1.37,0,0,1-.76-.33,1.07,1.07,0,0,1-.34-1v0l0-.14c.26-.9.58-1.9,1-3s.72-2.07,1-2.87a1.61,1.61,0,0,1,1.58-1.09l.3,0a1.73,1.73,0,0,1,.92.35,1.12,1.12,0,0,1,.39,1,1.61,1.61,0,0,1-.11.41c-.31.8-.72,1.79-1.22,2.95s-1,2.17-1.39,3a1.24,1.24,0,0,1-1.16.7Z"/><path class="cls-1" d="M95.35,34.83l-.29,0a1.72,1.72,0,0,1-1.23-.67,1.77,1.77,0,0,1-.3-1.28,1.89,1.89,0,0,1,.67-1.27,1.73,1.73,0,0,1,1.13-.38l.3,0a1.79,1.79,0,0,1,1.21.61,1.68,1.68,0,0,1,.32,1.32,1.91,1.91,0,0,1-.67,1.29,1.74,1.74,0,0,1-1.13.39Z"/><path class="cls-2" d="M28.39,43.06q-.21-.62-.41-1.33a9.48,9.48,0,0,0-.38-1.12.69.69,0,0,0-1-.38,1.75,1.75,0,0,0-.67.62,3.47,3.47,0,0,0-.49,1.24,6.8,6.8,0,0,0-.1,1.89,8.57,8.57,0,0,1-.27-.85q-.09-.36-.18-.84a4.57,4.57,0,0,0-.2-.86.25.25,0,0,0-.18-.17.68.68,0,0,0-.33.09,1.25,1.25,0,0,0-.56.44.9.9,0,0,0-.11.61,9.36,9.36,0,0,0,.27,1.3,6.53,6.53,0,0,1-.83.62,2.69,2.69,0,0,0-1.3-1.07,1.87,1.87,0,0,0-1.59.13,2.41,2.41,0,0,0-1,1,2.73,2.73,0,0,0-.33,1.43,3.66,3.66,0,0,0,.45,1.6,3,3,0,0,0,.81,1,2.2,2.2,0,0,0,1.11.46,2.12,2.12,0,0,0,1.25-.26,2.21,2.21,0,0,0,1.06-1.24,3,3,0,0,0,0-1.84A5.91,5.91,0,0,0,24.2,45l.14.32a4.59,4.59,0,0,0,.82,1.31.65.65,0,0,0,.78.16.69.69,0,0,0,.41-.41,1.87,1.87,0,0,0,0-.82,8.25,8.25,0,0,1-.16-1.46,6.43,6.43,0,0,1,.07-1.2q.09-.48.23-.55t.2.12A11.28,11.28,0,0,1,27,43.59a12,12,0,0,0,.51,1.5.9.9,0,0,0,.42.48.73.73,0,0,0,.61-.06.8.8,0,0,0,.46-.43.94.94,0,0,0-.11-.67A13.38,13.38,0,0,1,28.39,43.06Zm-6.13,3.75a.87.87,0,0,1-.44.59.74.74,0,0,1-.7,0,1.67,1.67,0,0,1-.7-.77,2.27,2.27,0,0,1-.32-1.3.94.94,0,0,1,.49-.78l.05,0a2.08,2.08,0,0,0,.15.36,2,2,0,0,0,.58.67,1.65,1.65,0,0,0,.81.32A1.73,1.73,0,0,1,22.26,46.82Z"/><path class="cls-2" d="M42,37.82q-.15-.64-.27-1.37a9.47,9.47,0,0,0-.26-1.15.69.69,0,0,0-1-.48,1.75,1.75,0,0,0-.73.54,3.47,3.47,0,0,0-.61,1.19,6.8,6.8,0,0,0-.29,1.87,8.53,8.53,0,0,1-.18-.88q0-.36-.09-.85a4.56,4.56,0,0,0-.11-.87.25.25,0,0,0-.16-.18.68.68,0,0,0-.34.05,1.25,1.25,0,0,0-.6.38.9.9,0,0,0-.17.6,9.68,9.68,0,0,0,.48,2.71,7.83,7.83,0,0,1-.32.79.91.91,0,0,1-.41.47.29.29,0,0,1-.26,0,.43.43,0,0,1-.19-.24,11.62,11.62,0,0,1-.44-1.88,9,9,0,0,0-.27-1.18q-.15-.39-.7-.18a2.82,2.82,0,0,0-.47.24.86.86,0,0,0-.27-.29.47.47,0,0,0-.37,0,2.66,2.66,0,0,0-1.27,1.05,3.78,3.78,0,0,0-.6,1.71,3.89,3.89,0,0,0,.25,1.85,2.15,2.15,0,0,0,.93,1.16,1.46,1.46,0,0,0,1.3.07,1.82,1.82,0,0,0,1.1-1.51,1.64,1.64,0,0,0,.73.51,1.12,1.12,0,0,0,.77,0,1.78,1.78,0,0,0,.84-.78c.08-.13.16-.28.23-.42a1.93,1.93,0,0,0,.17.23.65.65,0,0,0,.76.24.69.69,0,0,0,.45-.37,1.87,1.87,0,0,0,0-.82,8.24,8.24,0,0,1,0-1.47,6.43,6.43,0,0,1,.2-1.19q.13-.47.28-.52t.19.14a11.3,11.3,0,0,1,.26,1.2A12,12,0,0,0,41,39.76a.9.9,0,0,0,.37.52.73.73,0,0,0,.61,0,.8.8,0,0,0,.51-.38.94.94,0,0,0,0-.68A13.38,13.38,0,0,1,42,37.82Zm-7.09,3.4a.66.66,0,0,1-.36.47.51.51,0,0,1-.45,0,.85.85,0,0,1-.34-.46,3.25,3.25,0,0,1-.23-1.27,2.54,2.54,0,0,1,.28-1.14,1.45,1.45,0,0,1,.73-.69l.39,2.21A2,2,0,0,1,34.91,41.22Z"/><path class="cls-2" d="M93.41,31.5a.41.41,0,0,0-.34.15,3.91,3.91,0,0,1-.8.71,1.35,1.35,0,0,1-.82.16,1,1,0,0,1-.92-.63,4.3,4.3,0,0,0,2.09-.78,1.94,1.94,0,0,0,.7-1.37A1.5,1.5,0,0,0,93,28.61a1.52,1.52,0,0,0-1.08-.5,2.42,2.42,0,0,0-1.42.31,2.84,2.84,0,0,0-1.05,1.05,3.39,3.39,0,0,0-.35.84.71.71,0,0,1-.34.1q-.3,0-.29-.43a4.4,4.4,0,0,1,.11-.6,6,6,0,0,0,.13-.75.69.69,0,0,0-.75-.8,1.75,1.75,0,0,0-.88.25,3.47,3.47,0,0,0-1,.89,6.8,6.8,0,0,0-.94,1.65,8.63,8.63,0,0,1,.15-.88q.08-.36.22-.83a4.55,4.55,0,0,0,.21-.86.25.25,0,0,0-.09-.23.68.68,0,0,0-.33-.07,1.25,1.25,0,0,0-.69.14.9.9,0,0,0-.37.5,9.68,9.68,0,0,0-.52,2.69,7.41,7.41,0,0,1-.59.64.93.93,0,0,1-.56.3.3.3,0,0,1-.25-.12.57.57,0,0,1-.1-.35,13.22,13.22,0,0,1,.3-1.9A11.63,11.63,0,0,0,82.78,28a.26.26,0,0,0-.11-.24.79.79,0,0,0-.38-.06.78.78,0,0,0-.87.69,14.52,14.52,0,0,1-.56,1.81,5.28,5.28,0,0,1-.55,1.1q-.26.36-.44.37a.21.21,0,0,1-.19-.1.74.74,0,0,1-.07-.35,11.32,11.32,0,0,1,.21-1.68q.07-.36.18-.81a5,5,0,0,0,.12-.65.31.31,0,0,0-.11-.25.59.59,0,0,0-.37-.08,1.18,1.18,0,0,0-.68.17,1,1,0,0,0-.33.52A10.32,10.32,0,0,0,78.25,30a9.72,9.72,0,0,0-.09,1.14,5.92,5.92,0,0,1-.59.64,1.43,1.43,0,0,1-.89.37,1,1,0,0,1-1-.44,3.72,3.72,0,0,1-.4-1.73q0-.33,0-.93L76.74,29q1.35-.09,1.3-.91a.44.44,0,0,0-.1-.31.38.38,0,0,0-.28-.07l-1.34.08a4.19,4.19,0,0,0,1.35-3.32,2,2,0,0,0-.36-1.09A.9.9,0,0,0,76.5,23a1.73,1.73,0,0,0-1.23.73,5.43,5.43,0,0,0-.9,1.8,11.65,11.65,0,0,0-.47,2.44l-.68,0q-.54,0-.5.7a.59.59,0,0,0,.15.41.67.67,0,0,0,.49.1l.47,0q0,.54,0,1.07c0,.23,0,.45.07.66a.47.47,0,0,0-.2.17,9.6,9.6,0,0,1-.77,1,.94.94,0,0,1-.53.35q-.35,0-.4-.44a8.29,8.29,0,0,1,.08-1.39,9.64,9.64,0,0,0,.08-1.71.69.69,0,0,0-.86-.69,1.75,1.75,0,0,0-.83.37,3.47,3.47,0,0,0-.86,1,6.8,6.8,0,0,0-.7,1.76,8.54,8.54,0,0,1,0-.89q0-.36.1-.85a4.56,4.56,0,0,0,.09-.88.25.25,0,0,0-.12-.22.68.68,0,0,0-.34,0,1.25,1.25,0,0,0-.67.23.9.9,0,0,0-.3.54A9.68,9.68,0,0,0,67.58,32a4,4,0,0,1-.8.81,2.62,2.62,0,0,1-1.16.56A1.18,1.18,0,0,1,64.41,33a4.29,4.29,0,0,0,1.84-1.23,1.94,1.94,0,0,0,.37-1.49,1.5,1.5,0,0,0-.58-1A1.52,1.52,0,0,0,64.89,29a2.42,2.42,0,0,0-1.32.62,2.84,2.84,0,0,0-.78,1.26,3.39,3.39,0,0,0-.11.48,7.79,7.79,0,0,1-1,.33,3.29,3.29,0,0,0,.05-1.27,1,1,0,0,0-.35-.66.71.71,0,0,0-.6-.14,1.13,1.13,0,0,0-.65.37,1.66,1.66,0,0,0-.37.7,1.84,1.84,0,0,0,0,.81,1.78,1.78,0,0,0,.33.78q-.23.69-.74,1.87-.58-2.13-.83-3.49a.6.6,0,0,0-.23-.42.66.66,0,0,0-.48,0,1,1,0,0,0-.57.27.68.68,0,0,0-.11.58l.08.41q.18.94.49,2.11a7.32,7.32,0,0,1-.51.87,1,1,0,0,1-.58.43.47.47,0,0,1-.47-.2,2.61,2.61,0,0,1-.43-.92,23.32,23.32,0,0,0,.87-4,9.32,9.32,0,0,0-.08-3.21,2.39,2.39,0,0,0-.66-1.3A1,1,0,0,0,54.9,25q-1,.24-1.26,2A15.05,15.05,0,0,0,53.7,31a3.25,3.25,0,0,0-1.42,1,3.63,3.63,0,0,0-.78,1.56,3.93,3.93,0,0,0,0,1.76c-.1.2-.19.37-.27.5a.91.91,0,0,1-.45.43.29.29,0,0,1-.25,0,.43.43,0,0,1-.16-.25A11.6,11.6,0,0,1,50.1,34a9,9,0,0,0-.15-1.2q-.11-.4-.68-.25a2.82,2.82,0,0,0-.49.19.86.86,0,0,0-.24-.31.47.47,0,0,0-.37,0,2.66,2.66,0,0,0-1.36.92A3.78,3.78,0,0,0,46,35a3.89,3.89,0,0,0,.06,1.87,2.15,2.15,0,0,0,.81,1.24,1.46,1.46,0,0,0,1.29.2A1.82,1.82,0,0,0,49.44,37a1.64,1.64,0,0,0,.68.58,1.12,1.12,0,0,0,.77.06,1.78,1.78,0,0,0,.91-.69c.1-.13.19-.27.28-.42a1.79,1.79,0,0,0,.21.18,1.52,1.52,0,0,0,1.3.26,1.74,1.74,0,0,0,.81-.41,3.44,3.44,0,0,0,.66-1,1.51,1.51,0,0,0,1.6.72,2,2,0,0,0,1-.68,5.51,5.51,0,0,0,.44-.58,1.65,1.65,0,0,0,.34.49.91.91,0,0,0,.83.23,1.31,1.31,0,0,0,.73-.39,4.07,4.07,0,0,0,.64-1.07q.3-.67.54-1.28a3.37,3.37,0,0,0,1,0,4,4,0,0,0,.52-.14,2.39,2.39,0,0,0,.91,1.46,2.67,2.67,0,0,0,2,.38,3.47,3.47,0,0,0,1.64-.71,5.63,5.63,0,0,0,.5-.45,2.12,2.12,0,0,0,.13.34.65.65,0,0,0,.69.41.69.69,0,0,0,.52-.25,1.87,1.87,0,0,0,.22-.79,8.26,8.26,0,0,1,.32-1.43,6.44,6.44,0,0,1,.46-1.12q.24-.43.39-.45t.15.18a6.21,6.21,0,0,1,0,1.05,7.46,7.46,0,0,0,0,1.21,1.5,1.5,0,0,0,.42,1,1.16,1.16,0,0,0,1,.25,2.32,2.32,0,0,0,1.3-.55,5.28,5.28,0,0,0,1-1.13,2.11,2.11,0,0,0,2.25,1.36A2.47,2.47,0,0,0,77.88,33a4.67,4.67,0,0,0,.47-.41,1.78,1.78,0,0,0,.17.31,1,1,0,0,0,.89.48,1.19,1.19,0,0,0,.87-.45,2.81,2.81,0,0,0,.59-1.26,2.4,2.4,0,0,0,.29,1.24.92.92,0,0,0,.85.43,2.32,2.32,0,0,0,1.34-.43,4.74,4.74,0,0,0,.41-.34,2,2,0,0,0,.07.29.65.65,0,0,0,.63.5.69.69,0,0,0,.55-.18,1.87,1.87,0,0,0,.33-.75,8.61,8.61,0,0,1,.51-1.37,5.64,5.64,0,0,1,.61-1q.31-.39.49-.39t.13.2,0,.32a1.83,1.83,0,0,0,0,.36,1.17,1.17,0,0,0,.3.88,1.32,1.32,0,0,0,1,.35,1.94,1.94,0,0,0,.72-.11,2.37,2.37,0,0,0,.48,1.25,2.31,2.31,0,0,0,1.72.83,2.75,2.75,0,0,0,1.32-.18,2.33,2.33,0,0,0,.94-.73,1.33,1.33,0,0,0,.26-.72.74.74,0,0,0-.06-.4A.28.28,0,0,0,93.41,31.5ZM75.53,25.87a6.37,6.37,0,0,1,.34-1.27q.19-.46.37-.47t.31.69a3.32,3.32,0,0,1-.27,1.4,4.09,4.09,0,0,1-1,1.44A16.66,16.66,0,0,1,75.53,25.87ZM48.69,36.63a.66.66,0,0,1-.4.44.51.51,0,0,1-.45-.06.85.85,0,0,1-.29-.49,3.25,3.25,0,0,1-.1-1.29,2.54,2.54,0,0,1,.39-1.11,1.45,1.45,0,0,1,.79-.61l.17,2.24A2,2,0,0,1,48.69,36.63Zm5.44-1.27a.72.72,0,0,1-.4.28q-.58.14-.78-.71A2.71,2.71,0,0,1,53,33.37a2,2,0,0,1,.87-1.11q.12.64.19.91a8,8,0,0,0,.45,1.38A3.51,3.51,0,0,1,54.12,35.36Zm.76-6.16a14.75,14.75,0,0,1-.1-2.15q0-.84.26-.89t.24.2a2.5,2.5,0,0,1,.24.67,12.09,12.09,0,0,1-.23,4.88Q55,30.51,54.89,29.2Zm9.19,2.88a2.4,2.4,0,0,1,.12-1.28.88.88,0,0,1,.66-.62.44.44,0,0,1,.36.09.52.52,0,0,1,.18.34,1,1,0,0,1-.29.83,2.72,2.72,0,0,1-1,.66Zm26.35-1.15a2.4,2.4,0,0,1,.4-1.22.88.88,0,0,1,.79-.45.44.44,0,0,1,.33.16.52.52,0,0,1,.1.37,1,1,0,0,1-.47.74,2.72,2.72,0,0,1-1.15.41Z"/><path class="cls-2" d="M98.6,24.3a1,1,0,0,0-1.13.63q-.46,1.2-1,2.85t-.94,3l0,.09a.38.38,0,0,0,.11.35.68.68,0,0,0,.38.16.58.58,0,0,0,.67-.3q.63-1.26,1.38-3t1.21-2.94a.92.92,0,0,0,.07-.23Q99.36,24.39,98.6,24.3Z"/><path class="cls-2" d="M95.53,31.92a1.12,1.12,0,0,0-.89.21,1.2,1.2,0,0,0-.41.82,1.06,1.06,0,0,0,.17.78,1,1,0,0,0,.75.39A1.11,1.11,0,0,0,96,33.9a1.23,1.23,0,0,0,.42-.83,1,1,0,0,0-.17-.79A1.11,1.11,0,0,0,95.53,31.92Z"/></svg>