<svg id="Layer_1" data-name="Layer 1" xmlns="http://www.w3.org/2000/svg" viewBox="0 0 100 75"><defs><style>.cls-1{fill:#fff;}.cls-2{fill:#e24444;}.cls-3{fill:#2c3e50;}</style></defs><title>Artboard 1</title><path class="cls-1" d="M9.41,29.77a2.26,2.26,0,0,1-.57-.17,2.23,2.23,0,0,1-1.21-1.4A9.4,9.4,0,0,1,7.38,27c-.08-.46-.15-1-.22-1.46v0C7.1,25.07,7,24.65,7,24.32l0-.11a2.5,2.5,0,0,1-1.12.72,2.1,2.1,0,0,1-1,.07,2,2,0,0,1-.51-.15A3.09,3.09,0,0,1,3.24,24a3.84,3.84,0,0,1-.7-1.33,3.74,3.74,0,0,1,.31-3,5.76,5.76,0,0,1,2.31-2.07,19,19,0,0,1,3.62-1.45c.88-.27,1.6-.47,2.15-.6a13.66,13.66,0,0,1,1.51-.28,3.25,3.25,0,0,1,2.15-1.79,2.66,2.66,0,0,1,1.09,0A2.71,2.71,0,0,1,17,14a3.64,3.64,0,0,1,1.15,2,6.66,6.66,0,0,1,0,2.86,2.13,2.13,0,0,1,.79.43l.22-.25a4,4,0,0,1,2.12-1.16,3.38,3.38,0,0,1,1.26,0,3,3,0,0,1,1.12.43,3.08,3.08,0,0,1,1.35,2,3.71,3.71,0,0,1,.08.7,2,2,0,0,1,.38.31,2.3,2.3,0,0,1,.58,1.15A2.91,2.91,0,0,1,26,24.06a4,4,0,0,1-1.17,1.63,4.37,4.37,0,0,1-1.92.89,4.45,4.45,0,0,1-1.65.05h0a3.72,3.72,0,0,1-.46-.11,3.88,3.88,0,0,1-1.68.88,3,3,0,0,1-1.24.06,2.57,2.57,0,0,1-.76-.25,2.66,2.66,0,0,1-1.61,1.08,2.24,2.24,0,0,1-.91,0,2,2,0,0,1-1.25-.75,3.87,3.87,0,0,1-.62-1.48c-.07-.27-.11-.48-.15-.65l-.21-.91a22.81,22.81,0,0,1-.61-4.17q0-.16,0-.32l-.28.07c.11,1.06.24,2.13.38,3.18.07.53.17,1.16.29,1.87s.22,1.25.31,1.65A2.26,2.26,0,0,1,12,28.76a2.68,2.68,0,0,1-1.35.91A2.62,2.62,0,0,1,9.41,29.77ZM16.28,17Z"/><path class="cls-1" d="M28.95,25.26a3,3,0,0,1-1.52-.74,3.74,3.74,0,0,1-1.18-2.29,5.55,5.55,0,0,1,.22-2.64,5.43,5.43,0,0,1,1.37-2.2,4.27,4.27,0,0,1,2.35-1.2,2.31,2.31,0,0,1,.75,0,1.88,1.88,0,0,1,.64.23,2.4,2.4,0,0,1,.54,0,2,2,0,0,1,1.07.54q.17-.2.36-.37a4.91,4.91,0,0,1,1-.74A15.59,15.59,0,0,1,35,12.43c.6-2.31,1.88-2.93,2.85-3a2.61,2.61,0,0,1,.74,0,2.69,2.69,0,0,1,1.53.85,3.9,3.9,0,0,1,.93,2.28A9.44,9.44,0,0,1,41,15a2.06,2.06,0,0,1,.79.35,2.74,2.74,0,0,1,1.56-.65,2.43,2.43,0,0,1,.6,0,2.29,2.29,0,0,1,1.22.62l0,0,.11-.08a4,4,0,0,1,2.27-.81,3.58,3.58,0,0,1,.76,0,3,3,0,0,1,1.29.53,2.35,2.35,0,0,1,.31-.25,2.81,2.81,0,0,1,1.57-.45,2.73,2.73,0,0,1,.49,0,2,2,0,0,1,.69.25l.09.06a3.21,3.21,0,0,1,1.43-.38,2.85,2.85,0,0,1,.5,0,2.46,2.46,0,0,1,.43.11,2,2,0,0,1,.41-.16,12.47,12.47,0,0,1,.51-1.51,7.11,7.11,0,0,1,1.4-2.24A3.29,3.29,0,0,1,60,9.49l.37,0a2.5,2.5,0,0,1,1.73,1.19,3.6,3.6,0,0,1,.5,2,5.66,5.66,0,0,1-.36,1.88,3.73,3.73,0,0,1,.53,0l.3,0A2,2,0,0,1,64,15a2.57,2.57,0,0,1,1.44-.29l.34,0a2.06,2.06,0,0,1,.86.34,1.78,1.78,0,0,1,.24.2l.06,0A2.81,2.81,0,0,1,68.56,15l.2,0a2,2,0,0,1,.94.39l.09.07a3.21,3.21,0,0,1,1.46-.21l.19,0a2.3,2.3,0,0,1,1.5.87,4,4,0,0,1,2.35-.35h.09a3.11,3.11,0,0,1,2,1.17,2.93,2.93,0,0,1,.3.48,2.49,2.49,0,0,1,2.54-1h.05a2.64,2.64,0,0,1,1.07.4,1.79,1.79,0,0,1,.75,1.8,2.3,2.3,0,0,1-.24.66,3.31,3.31,0,0,1-.26.42l.06.12v0a9.22,9.22,0,0,1,.51,1.17,3.16,3.16,0,0,1,.12,1.61,3.65,3.65,0,0,1-.72,1.6,3.51,3.51,0,0,1-1.42,1.09,3.3,3.3,0,0,1-1.86.21h-.06a3,3,0,0,1-1.85-1l-.12-.16a5.1,5.1,0,0,1-2.32.2l-.14,0a4.2,4.2,0,0,1-2.76-1.56,3.78,3.78,0,0,1-.41-.68A3,3,0,0,1,69.55,22a3.09,3.09,0,0,1-.77,1.27,2.27,2.27,0,0,1-1.81.56l-.15,0a2.22,2.22,0,0,1-.87-.34,4,4,0,0,1-1.42.16l-.31,0a2.56,2.56,0,0,1-1-.4,2.61,2.61,0,0,1-1.32.27l-.28,0a2.55,2.55,0,0,1-1-.38,4.17,4.17,0,0,1-1.65.28,4.68,4.68,0,0,1-.65-.06,3.69,3.69,0,0,1-1.69-.73,3.93,3.93,0,0,1-2.23.7,3.36,3.36,0,0,1-.6,0,2.69,2.69,0,0,1-1.24-.54A2.31,2.31,0,0,1,51,23.3a2.36,2.36,0,0,1-.42,0,2.18,2.18,0,0,1-.77-.28A5.11,5.11,0,0,1,48,23.4a5.38,5.38,0,0,1-1.14-.06,3.93,3.93,0,0,1-2-.94,3.81,3.81,0,0,1-.6-.68,5.47,5.47,0,0,1-1.09,1.41,2.94,2.94,0,0,1-1.68.7,2.68,2.68,0,0,1-.66,0,2.47,2.47,0,0,1-.67-.21,3.33,3.33,0,0,1-1.36.48,3,3,0,0,1-.84,0,2.85,2.85,0,0,1-.73-.22,3.35,3.35,0,0,1-1.62.62,3.3,3.3,0,0,1-.93,0,3.08,3.08,0,0,1-.55-.15,3.08,3.08,0,0,1-1.29.53,2.68,2.68,0,0,1-.86,0,2.73,2.73,0,0,1-.54-.15,3.16,3.16,0,0,1-1.41.59A3.29,3.29,0,0,1,28.95,25.26Z"/><path class="cls-1" d="M89.69,32.08,89.33,32a2.87,2.87,0,0,1-2-3.07,9.93,9.93,0,0,1,.21-1.85,3.73,3.73,0,0,1-1.52.06l-.33-.07a3.72,3.72,0,0,1-1.92-1.14,3.81,3.81,0,0,1-.9-1.87,4.59,4.59,0,0,1,.08-2,5.31,5.31,0,0,1,1.08-2.14A4.35,4.35,0,0,1,86,18.61a4,4,0,0,1,2-.17l.36.08a3.51,3.51,0,0,1,2,1.28,15.39,15.39,0,0,1,2.62-3.52,4.09,4.09,0,0,1,3.5-1.41l.37.09a2.57,2.57,0,0,1,1.78,1.84,4.11,4.11,0,0,1-.1,2.29A8.26,8.26,0,0,1,95.67,23a2,2,0,0,1,1,2.47,2.44,2.44,0,0,1-2.71,1.74,15,15,0,0,1-.37,1.56,5.33,5.33,0,0,1-1.46,2.53A2.85,2.85,0,0,1,89.69,32.08Zm2.2-2.87Zm2.46-11.42Z"/><path class="cls-2" d="M24.32,22.48a.28.28,0,0,0-.27-.09.42.42,0,0,0-.28.25,4,4,0,0,1-.57.92,1.38,1.38,0,0,1-.76.4,1,1,0,0,1-1.08-.35,4.38,4.38,0,0,0,1.81-1.36,2,2,0,0,0,.29-1.54,1.53,1.53,0,0,0-.65-1,1.55,1.55,0,0,0-1.2-.18,2.47,2.47,0,0,0-1.3.71,2.9,2.9,0,0,0-.72,1.33,3.53,3.53,0,0,0,0,1.61,3.83,3.83,0,0,0,.14.49c-.11.21-.22.38-.31.51a1,1,0,0,1-.49.43q-.34.09-.46-.39a8.45,8.45,0,0,1-.11-1.42A9.81,9.81,0,0,0,18.18,21a.7.7,0,0,0-1-.58,1.79,1.79,0,0,0-.79.48,3.5,3.5,0,0,0-.72,1.14,7,7,0,0,0-.46,1.85q-.16-.65-.28-1.27a16.52,16.52,0,0,0,1.53-3.56,5.34,5.34,0,0,0,.08-2.65,2.09,2.09,0,0,0-.64-1.13,1.07,1.07,0,0,0-1-.25q-1,.25-1.41,1.78c0,.09,0,.18-.06.28a.63.63,0,0,0-.19-.15,1.1,1.1,0,0,0-.62-.08,11.81,11.81,0,0,0-1.38.26q-.78.19-2.06.58A17.7,17.7,0,0,0,5.9,19.05a4.31,4.31,0,0,0-1.7,1.48A2.16,2.16,0,0,0,4,22.32a2.26,2.26,0,0,0,.41.79,1.51,1.51,0,0,0,.56.45.49.49,0,0,0,.36,0,1,1,0,0,0,.48-.36A.55.55,0,0,0,6,22.72a.36.36,0,0,0-.1-.16,1.44,1.44,0,0,1-.46-.69,1,1,0,0,1,.06-.79,2,2,0,0,1,.8-.71A10.08,10.08,0,0,1,8,19.64l0,.54,0,.43q.08.83.18,1.76t.25,1.85q.09.55.18,1.3t.21,1.42a8.29,8.29,0,0,0,.2,1,.65.65,0,0,0,.36.43.9.9,0,0,0,.65,0,1.09,1.09,0,0,0,.56-.37.69.69,0,0,0,.12-.6q-.15-.66-.33-1.74t-.29-1.92q-.3-2.28-.52-4.56l1.56-.43,1.67-.39a1.53,1.53,0,0,0,.41-.14,13.88,13.88,0,0,0,0,2.28,21.12,21.12,0,0,0,.57,3.89l.22.95q0,.23.14.61a2.62,2.62,0,0,0,.34.89.47.47,0,0,0,.53.14,1.1,1.1,0,0,0,.88-1.22A8.76,8.76,0,0,1,16,24.21,6,6,0,0,1,16.36,23q.19-.47.34-.5t.18.16a6.32,6.32,0,0,1,.1,1.07A7.59,7.59,0,0,0,17.1,25a1.53,1.53,0,0,0,.56.94,1.18,1.18,0,0,0,1,.12,2.29,2.29,0,0,0,1.21-.73,5.71,5.71,0,0,0,.47-.63,2.22,2.22,0,0,0,.24.21,2.35,2.35,0,0,0,1.92.31,2.8,2.8,0,0,0,1.23-.56,2.37,2.37,0,0,0,.71-1,1.35,1.35,0,0,0,0-.78A.76.76,0,0,0,24.32,22.48ZM15.47,19a8.72,8.72,0,0,1-.75,2.18,22.59,22.59,0,0,1-.16-2.35,10.63,10.63,0,0,1,.1-1.77q.11-.67.32-.73t.29.14a1.63,1.63,0,0,1,.23.56A4.53,4.53,0,0,1,15.47,19ZM21,21.39a.89.89,0,0,1,.64-.67.45.45,0,0,1,.37.07.53.53,0,0,1,.2.34A1,1,0,0,1,22,22a2.77,2.77,0,0,1-1,.73v0A2.44,2.44,0,0,1,21,21.39Z"/><path class="cls-2" d="M80.23,20.89a4.57,4.57,0,0,1-.29-.61.81.81,0,0,1-.05-.42,1.74,1.74,0,0,1,.35-.69,1.77,1.77,0,0,0,.19-.29.89.89,0,0,0,.09-.22.2.2,0,0,0-.1-.22A1.28,1.28,0,0,0,80,18.3a.94.94,0,0,0-1,.35l-.82,1.2a7.89,7.89,0,0,1-.59.75c-.2.22-.47.48-.8.77a4.11,4.11,0,0,1-1,.51,2.67,2.67,0,0,1-1.29.2,1.2,1.2,0,0,1-1.07-.72,4.36,4.36,0,0,0,2.16-.66,2,2,0,0,0,.8-1.34,1.53,1.53,0,0,0-.26-1.19A1.55,1.55,0,0,0,75,17.6a2.47,2.47,0,0,0-1.47.22,2.9,2.9,0,0,0-1.14,1,3.45,3.45,0,0,0-.42.84.71.71,0,0,1-.34.07q-.3,0-.26-.46a4.46,4.46,0,0,1,.16-.6,6.11,6.11,0,0,0,.19-.75.7.7,0,0,0-.71-.87,1.79,1.79,0,0,0-.91.19,3.53,3.53,0,0,0-1.07.83A6.92,6.92,0,0,0,68,19.68a8.7,8.7,0,0,1,.21-.88q.11-.36.28-.83a4.63,4.63,0,0,0,.27-.85.25.25,0,0,0-.07-.24.69.69,0,0,0-.33-.1,1.27,1.27,0,0,0-.71.09.92.92,0,0,0-.41.48,9.85,9.85,0,0,0-.73,2.7,7.54,7.54,0,0,1-.65.6,1,1,0,0,1-.6.26.31.31,0,0,1-.25-.14.58.58,0,0,1-.08-.36,13.51,13.51,0,0,1,.46-1.9,11.85,11.85,0,0,0,.41-1.65.27.27,0,0,0-.09-.26.81.81,0,0,0-.39-.09.79.79,0,0,0-.94.63,14.82,14.82,0,0,1-.71,1.79A5.38,5.38,0,0,1,63,20q-.3.35-.48.34a.21.21,0,0,1-.19-.12.76.76,0,0,1,0-.36,11.54,11.54,0,0,1,.35-1.69q.1-.36.24-.8a5.05,5.05,0,0,0,.17-.65.31.31,0,0,0-.09-.26.6.6,0,0,0-.37-.11,1.2,1.2,0,0,0-.7.12,1,1,0,0,0-.37.5,10.48,10.48,0,0,0-.5,1.59,9.93,9.93,0,0,0-.18,1.16,6,6,0,0,1-.66.59,1.45,1.45,0,0,1-.93.29,1,1,0,0,1-.93-.54,3.79,3.79,0,0,1-.26-1.79q0-.34,0-.95l1.49,0q1.38,0,1.4-.81a.45.45,0,0,0-.08-.32.39.39,0,0,0-.28-.09l-1.37,0A4.27,4.27,0,0,0,61,12.84a2,2,0,0,0-.26-1.14.91.91,0,0,0-.79-.47,1.76,1.76,0,0,0-1.31.63,5.53,5.53,0,0,0-1.07,1.74A11.86,11.86,0,0,0,56.84,16l-.69,0q-.55,0-.57.67a.6.6,0,0,0,.12.43.68.68,0,0,0,.49.15h.48q0,.55-.06,1.08c0,.24,0,.47,0,.69a.47.47,0,0,0-.22.16,9.8,9.8,0,0,1-.88,1,1,1,0,0,1-.58.31q-.35,0-.36-.48a8.45,8.45,0,0,1,.21-1.4A9.81,9.81,0,0,0,55,16.87a.7.7,0,0,0-.8-.78,1.78,1.78,0,0,0-.88.29,3.54,3.54,0,0,0-1,1A6.93,6.93,0,0,0,51.5,19a8.72,8.72,0,0,1,.11-.9q.07-.37.18-.86a4.64,4.64,0,0,0,.17-.88.25.25,0,0,0-.1-.23.69.69,0,0,0-.34-.06,1.27,1.27,0,0,0-.7.17.92.92,0,0,0-.35.52,9.85,9.85,0,0,0-.41,2.76,4.11,4.11,0,0,1-.89.73,2.67,2.67,0,0,1-1.23.44,1.2,1.2,0,0,1-1.18-.5,4.36,4.36,0,0,0,2-1.06,2,2,0,0,0,.53-1.47,1.53,1.53,0,0,0-.48-1.12,1.55,1.55,0,0,0-1.15-.37,2.47,2.47,0,0,0-1.4.5,2.89,2.89,0,0,0-.92,1.2,3.46,3.46,0,0,0-.16.48,7.91,7.91,0,0,1-1,.23,3.35,3.35,0,0,0,.19-1.28,1.07,1.07,0,0,0-.28-.71.73.73,0,0,0-.59-.2,1.15,1.15,0,0,0-.7.3,1.69,1.69,0,0,0-.45.67,1.88,1.88,0,0,0-.12.82,1.81,1.81,0,0,0,.25.82q-.31.67-1,1.81-.35-2.22-.47-3.62a.61.61,0,0,0-.19-.46.68.68,0,0,0-.48-.1,1,1,0,0,0-.61.21.69.69,0,0,0-.17.58l0,.43q.08,1,.26,2.19a7.47,7.47,0,0,1-.62.82,1,1,0,0,1-.63.37.48.48,0,0,1-.45-.25,2.66,2.66,0,0,1-.33-1,23.74,23.74,0,0,0,1.34-3.94,9.49,9.49,0,0,0,.29-3.25A2.44,2.44,0,0,0,39,11.49a1,1,0,0,0-.92-.37Q37,11.24,36.54,13a15.32,15.32,0,0,0-.4,4.12,3.31,3.31,0,0,0-1.54.82,3.7,3.7,0,0,0-1,1.49,4,4,0,0,0-.2,1.78c-.13.19-.24.35-.34.47a.93.93,0,0,1-.51.38.29.29,0,0,1-.25-.07.44.44,0,0,1-.14-.27,11.81,11.81,0,0,1,0-2,9.14,9.14,0,0,0,0-1.23q-.07-.42-.66-.33a2.87,2.87,0,0,0-.52.13.88.88,0,0,0-.21-.34.48.48,0,0,0-.37,0,2.71,2.71,0,0,0-1.49.77,3.85,3.85,0,0,0-1,1.57,4,4,0,0,0-.16,1.89,2.19,2.19,0,0,0,.67,1.35,1.48,1.48,0,0,0,1.28.36,1.85,1.85,0,0,0,1.42-1.26,1.67,1.67,0,0,0,.62.66,1.14,1.14,0,0,0,.77.16,1.81,1.81,0,0,0,1-.59c.12-.12.23-.26.34-.4a1.82,1.82,0,0,0,.2.21,1.55,1.55,0,0,0,1.28.41,1.78,1.78,0,0,0,.86-.32,3.5,3.5,0,0,0,.79-1,1.54,1.54,0,0,0,1.53.91,2,2,0,0,0,1.12-.57,5.61,5.61,0,0,0,.51-.54,1.68,1.68,0,0,0,.29.54.92.92,0,0,0,.82.32,1.34,1.34,0,0,0,.78-.32,4.15,4.15,0,0,0,.76-1q.38-.64.68-1.24a3.42,3.42,0,0,0,1,.06,4.08,4.08,0,0,0,.54-.08,2.43,2.43,0,0,0,.77,1.57,2.71,2.71,0,0,0,2,.6,3.53,3.53,0,0,0,1.74-.55,5.83,5.83,0,0,0,.56-.4,2.15,2.15,0,0,0,.1.36.67.67,0,0,0,.66.48.7.7,0,0,0,.55-.21,1.9,1.9,0,0,0,.3-.78,8.39,8.39,0,0,1,.46-1.42,6.55,6.55,0,0,1,.57-1.09q.28-.41.44-.41t.14.19a6.33,6.33,0,0,1-.15,1.06,7.6,7.6,0,0,0-.16,1.22,1.53,1.53,0,0,0,.33,1,1.18,1.18,0,0,0,.94.35,2.36,2.36,0,0,0,1.37-.43,5.38,5.38,0,0,0,1.11-1.07A2.15,2.15,0,0,0,59,21.91a2.51,2.51,0,0,0,1.44-.38,4.76,4.76,0,0,0,.52-.38,1.81,1.81,0,0,0,.15.33A1,1,0,0,0,62,22a1.21,1.21,0,0,0,.92-.39,2.86,2.86,0,0,0,.7-1.23,2.45,2.45,0,0,0,.2,1.28.93.93,0,0,0,.83.5A2.36,2.36,0,0,0,66,21.87a4.84,4.84,0,0,0,.46-.32,2,2,0,0,0,.06.31.67.67,0,0,0,.6.55.7.7,0,0,0,.57-.14,1.9,1.9,0,0,0,.39-.74,8.78,8.78,0,0,1,.62-1.36,5.73,5.73,0,0,1,.7-1q.34-.38.52-.36T70,19t-.06.32a1.85,1.85,0,0,0-.07.36,1.19,1.19,0,0,0,.24.92,1.34,1.34,0,0,0,.94.43,2,2,0,0,0,.75-.07,2.32,2.32,0,0,0,.46,1.32,2.71,2.71,0,0,0,1.87,1A3.53,3.53,0,0,0,76,23.06l.41-.18a.77.77,0,0,0,.29-.13l.15-.11a3.54,3.54,0,0,0,.55-.41l.05-.06.2-.17a8,8,0,0,0,1-1q.13.22.28.52a3,3,0,0,1,.22.59,1.57,1.57,0,0,1,0,.61l-.31-.1-.36-.1a.93.93,0,0,0-.71.1.75.75,0,0,0-.33.5.86.86,0,0,0,.21.71,1.43,1.43,0,0,0,.9.46,1.74,1.74,0,0,0,1-.1,1.94,1.94,0,0,0,.79-.61,2.07,2.07,0,0,0,.41-.91,1.59,1.59,0,0,0-.06-.81A7.77,7.77,0,0,0,80.23,20.89ZM30.43,22.17a.67.67,0,0,1-.46.39.52.52,0,0,1-.44-.12.86.86,0,0,1-.24-.53,3.3,3.3,0,0,1,.05-1.32,2.59,2.59,0,0,1,.53-1.08,1.48,1.48,0,0,1,.87-.53l-.1,2.29A2.05,2.05,0,0,1,30.43,22.17Zm5.65-.65a.73.73,0,0,1-.44.24q-.61.07-.71-.81a2.76,2.76,0,0,1,.26-1.57,2,2,0,0,1,1-1q.05.66.09.95a8.12,8.12,0,0,0,.3,1.45A3.58,3.58,0,0,1,36.08,21.52Zm1.56-3.36q-.1-1.45-.09-2.79a15,15,0,0,1,.14-2.18q.13-.84.36-.87t.22.23a2.55,2.55,0,0,1,.16.7A12.31,12.31,0,0,1,37.64,18.16Zm8.88,1.12A2.44,2.44,0,0,1,46.77,18a.89.89,0,0,1,.74-.56.45.45,0,0,1,.35.12.53.53,0,0,1,.15.37,1,1,0,0,1-.38.81,2.77,2.77,0,0,1-1.11.57Zm12.17-5.2a6.5,6.5,0,0,1,.46-1.26q.24-.45.42-.45t.25.73a3.39,3.39,0,0,1-.39,1.4,4.17,4.17,0,0,1-1.11,1.37A17,17,0,0,1,58.68,14.09Zm14.66,6.28a2.44,2.44,0,0,1,.49-1.21.89.89,0,0,1,.83-.41.45.45,0,0,1,.32.19.53.53,0,0,1,.07.39,1,1,0,0,1-.52.73,2.77,2.77,0,0,1-1.19.35Z"/><path class="cls-2" d="M91.13,25.74a21,21,0,0,1,.73-2q4.26-2.24,5.09-5A2.56,2.56,0,0,0,97,17.38a1,1,0,0,0-.71-.75q-1-.31-2.32.95A14.14,14.14,0,0,0,91.52,21q-.54,1-1,2a6.73,6.73,0,0,1-1.08-.1,2.74,2.74,0,0,0-.25-1.69,1.9,1.9,0,0,0-1.29-1,2.46,2.46,0,0,0-1.44.05,2.78,2.78,0,0,0-1.23.86,3.72,3.72,0,0,0-.75,1.51,3,3,0,0,0-.05,1.29A2.24,2.24,0,0,0,85,25a2.16,2.16,0,0,0,1.12.65,2.25,2.25,0,0,0,1.65-.21A3,3,0,0,0,89,24.11a6,6,0,0,0,1,.13q-.21.57-.38,1.15a14.06,14.06,0,0,0-.73,3.7q0,1.3.84,1.55A1.28,1.28,0,0,0,91,30.3a3.88,3.88,0,0,0,1-1.8A14.07,14.07,0,0,0,92.37,27q.17-.91.24-1.68a4.64,4.64,0,0,0,.77.35q1.45.44,1.73-.48.15-.49-.18-.59l-.21-.05-.21,0a7.72,7.72,0,0,1-1.06-.23l-.24-.09L92.65,24a.46.46,0,0,0-.34.09,1.67,1.67,0,0,0-.4.33.84.84,0,0,0-.22.35q-.08,1-.21,1.9a12.94,12.94,0,0,1-.41,1.8q-.37,1.21-.72,1.11-.19-.06.12-1.35T91.13,25.74ZM93.81,20A13.7,13.7,0,0,1,95,18.26q.52-.62.73-.55t.08.8a5.82,5.82,0,0,1-1.17,2,8.9,8.9,0,0,1-2.11,1.78Q93.15,21,93.81,20Zm-6.56,4.35a.88.88,0,0,1-.73.14A.76.76,0,0,1,86,24a1.7,1.7,0,0,1,0-1.06,2.31,2.31,0,0,1,.64-1.2,1,1,0,0,1,.9-.25l.06,0a2.12,2.12,0,0,0-.13.37,2,2,0,0,0,0,.9,1.68,1.68,0,0,0,.39.79A1.76,1.76,0,0,1,87.25,24.31Z"/><path class="cls-1" d="M11.83,65.95a6.29,6.29,0,0,1-.67,0,6.65,6.65,0,0,1-.73-.12l-.56-.14a2.8,2.8,0,0,1-.75-.3,2.19,2.19,0,0,1-.88-1.16l-.06-.14-.26-.3a3.28,3.28,0,0,1-.47-.7,3.55,3.55,0,0,1-.3-.88,5.35,5.35,0,0,1-.09-1.08,20.49,20.49,0,0,1,.13-2.27A16.93,16.93,0,0,0,7.3,57a3.08,3.08,0,0,0-.1-.65A7,7,0,0,1,7,54.72c0-.55,0-1.1,0-1.63s0-1,0-1.51A24.76,24.76,0,0,0,6.92,49a27.07,27.07,0,0,1-.15-2.83,5.26,5.26,0,0,1,.16-1.33c.08-.3.17-.61.26-.92s.15-.53.21-.82a4.1,4.1,0,0,0,.07-.85,3,3,0,0,0,0-.35,6,6,0,0,1,0-.69,4,4,0,0,1,1.31-3.17,4.57,4.57,0,0,1,3.06-1,9.23,9.23,0,0,1,1.54.14c.52.09,1,.2,1.52.34a9.81,9.81,0,0,1,1.4.5,3.25,3.25,0,0,1,1.29.94,2.94,2.94,0,0,1,.57,1.36.42.42,0,0,0,.06.17l0,0v0a1.25,1.25,0,0,0,.28.32,4.34,4.34,0,0,1,.84.89l0,0a2.72,2.72,0,0,1,.37,1.11.86.86,0,0,0,.07.2,1.29,1.29,0,0,0,.17.21c.24.25.47.5.68.76l0,0a6.41,6.41,0,0,1,.59.89,2.39,2.39,0,0,0,.24.36,8.63,8.63,0,0,0,.95.9l.42.37A3.91,3.91,0,0,1,23,46a1.16,1.16,0,0,0,0-.35A15.39,15.39,0,0,0,23,44.1a19.35,19.35,0,0,1-.1-2,7.79,7.79,0,0,1,.14-1.5c.08-.4.17-.8.26-1.17s.16-.65.23-1a2.91,2.91,0,0,0,.07-.63,3.78,3.78,0,0,0,0-.64c0-.24-.09-.47-.14-.68l-.15-.67a4.37,4.37,0,0,1-.11-1,3.26,3.26,0,0,1,.23-1.22,3.47,3.47,0,0,1,.61-1A3.1,3.1,0,0,1,25,31.91a3.31,3.31,0,0,1,1.37-.28,5,5,0,0,1,.67.06,3.64,3.64,0,0,1,1.4.52,3.87,3.87,0,0,1,1.26,1.3,4.3,4.3,0,0,1,.56,2.31,7.48,7.48,0,0,1-.08,1.05,5.22,5.22,0,0,0,0,.73c0,.61,0,1.21.07,1.79s.1,1.2.16,1.78.12,1.16.16,1.72.08,1.15.08,1.66a22.32,22.32,0,0,1-.14,2.54,16,16,0,0,0-.12,1.77,17.58,17.58,0,0,0,.15,2.24c.11.85.2,1.65.27,2.38v.15a.78.78,0,0,0,0,.1,4,4,0,0,1,0,.52,13.84,13.84,0,0,1-.16,2A11.28,11.28,0,0,0,30.57,58c0,.2,0,.42,0,.66s0,.59,0,.88a8.93,8.93,0,0,1-.09,1.23,4.65,4.65,0,0,1-.42,1.4,3.2,3.2,0,0,1-1.17,1.31,3.68,3.68,0,0,1-3.1.29l-.67-.28-.48-.19a.78.78,0,0,0-.23,0l-.7,0c-.36,0-.74,0-1.12,0a4.69,4.69,0,0,1-1.49-.18,2.29,2.29,0,0,1-1.28-1,3,3,0,0,1-.38-1.06.79.79,0,0,0,0-.11,3.37,3.37,0,0,1-.62-.71l0,0a4.94,4.94,0,0,1-.37-.72l-.15-.34-.07-.12h0L18.13,59l-.4-.31a4.93,4.93,0,0,1-.4-.36,5.26,5.26,0,0,1-.36-.41,5.2,5.2,0,0,1-.4-.57,8,8,0,0,1-.68-1.09c-.1-.19-.2-.38-.32-.57q0,.21,0,.42a8.16,8.16,0,0,0,.13,1.06,8.32,8.32,0,0,1,.14,1.56,7,7,0,0,1-.25,1.76A10.46,10.46,0,0,0,15.35,62q-.08.65-.1,1.1a3.58,3.58,0,0,1-.37,1.43,2.53,2.53,0,0,1-1.36,1.2A4.64,4.64,0,0,1,11.83,65.95Z"/><path class="cls-1" d="M43.62,67c-.24,0-.55,0-.94-.06l-1.1-.14c-.39-.06-.76-.13-1.1-.22A3.2,3.2,0,0,1,39.25,66a3.64,3.64,0,0,1-1.07-1.36,7.11,7.11,0,0,1-.44-1.32c-.1-.41-.18-.86-.25-1.32s-.12-.75-.21-1.12l-.38-1.64a9,9,0,0,1-.24-2,5.74,5.74,0,0,1,.25-1.7,4.44,4.44,0,0,1,1-1.7l.06-.06a2.13,2.13,0,0,1,1.21-1.53c.32-.19.72-.42,1.18-.67l1.47-.78,1.35-.71a2.8,2.8,0,0,0,.35-.26,7.4,7.4,0,0,1,.81-.61l0,0,0,0,.31-.15-.36-.43c-.35-.41-.71-.85-1.05-1.3a4.88,4.88,0,0,1-.91-1.87l-.32-1.22a6.44,6.44,0,0,1-.23-1.68A3.55,3.55,0,0,1,42,41.36a2.66,2.66,0,0,1,.52-.91l.39-.41a2.52,2.52,0,0,0,.22-.27.36.36,0,0,0,0-.12,3,3,0,0,1,.39-1,3.17,3.17,0,0,1,.9-1,10.32,10.32,0,0,1,.9-.59l.85-.49a1.86,1.86,0,0,0,.39-.29l.06-.06,0,0a2,2,0,0,1,.9-.86,3.9,3.9,0,0,1,1.51-.39c.43,0,.78,0,1.07,0h.42a2.2,2.2,0,0,1,1.17.41l.91.48c.36.18.77.36,1.22.55a10.36,10.36,0,0,0,1.28.44c.24.06.52.15.85.26a7.36,7.36,0,0,1,1.1.48,4.61,4.61,0,0,1,1.08.79A2.48,2.48,0,0,1,59,40.05a2.62,2.62,0,0,1-.08.63.53.53,0,0,0,0,.14c.07.18.14.37.22.55s.22.49.31.73a3.29,3.29,0,0,1,.23,1.19,2.5,2.5,0,0,1-.35,1.29,3.52,3.52,0,0,1-.61.76c-.17.16-.35.32-.56.48a2.65,2.65,0,0,0-.3.28l0,0a3.14,3.14,0,0,0-.45.61,4.79,4.79,0,0,1-.87,1.15,4.21,4.21,0,0,1-1.42.89,1.93,1.93,0,0,0-.37.18l-.33.34c-.18.19-.35.39-.51.58l.32.34a5.44,5.44,0,0,1,.57.68,2.12,2.12,0,0,1,.34.69l.23.27.28.37.33-.15c.23-.12.45-.24.65-.37a5.18,5.18,0,0,0,.5-.34,1.37,1.37,0,0,0,.22-.21,4.51,4.51,0,0,1,.61-.64,3.28,3.28,0,0,1,1-.57,3.88,3.88,0,0,1,1.38-.21,2.54,2.54,0,0,1,1.38.43,5.48,5.48,0,0,1,.73.56,5.66,5.66,0,0,1,.53.55l.06.07a1.57,1.57,0,0,0-1.12-.47v1.58h1.58a2.47,2.47,0,0,1,0,.37l.2.43c.11.26.22.52.31.8a3.47,3.47,0,0,1,.21,1.13v.23a2.36,2.36,0,0,1-.4,1.14,3.16,3.16,0,0,1-.59.63l-.41.34-.25.23-.05.07-.16.28a5.33,5.33,0,0,1-.27.46,2.71,2.71,0,0,1-.63.66h0l.11.14c.19.24.31.4.39.52l0,0,0,0,.38.63c.15.25.29.49.42.73a7.13,7.13,0,0,1,.37.8,3.11,3.11,0,0,1,.21,1.1,3,3,0,0,1-.22,1.1,3.55,3.55,0,0,1-1.5,1.75,2.85,2.85,0,0,1-1.46.39,3.57,3.57,0,0,1-2-.67,6.1,6.1,0,0,1-1.3-1.19,2.61,2.61,0,0,1-.47-.8,2.27,2.27,0,0,1-.79-.58l-.09.08,0,0a6.79,6.79,0,0,1-1.08.66c-.36.18-.75.36-1.16.52s-.85.33-1.3.47l-1.17.37h0a2.49,2.49,0,0,0-.41.16l-.71.34a7.36,7.36,0,0,1-.84.32,3.45,3.45,0,0,1-1,.16h-.16l-.49,0h-.21a1.85,1.85,0,0,0-.47,0c-.21.06-.42.12-.61.19s-.58.2-.88.27A4.86,4.86,0,0,1,43.62,67Zm4.32-12.23a2.9,2.9,0,0,1,.43.09,4.58,4.58,0,0,0,.61-.08l-.16-.21-.18-.23Zm1.87-10.59.08.15a8.13,8.13,0,0,0,.46.75l.55-.44a2.83,2.83,0,0,0,.49-.52l0,0a3,3,0,0,1,.41-1l0,0,.13-.17-.3-.13a10.27,10.27,0,0,0-1.2-.42l-.34-.09-.06.07a1.34,1.34,0,0,0-.16.26,3,3,0,0,1,.09.73v.14l0,.14A3,3,0,0,1,49.81,44.14Z"/><path class="cls-1" d="M75.94,67a9,9,0,0,1-.93-.06l-1.06-.14a10.7,10.7,0,0,1-1.12-.24A3.63,3.63,0,0,1,71.68,66a3.36,3.36,0,0,1-1.14-1.41A8.85,8.85,0,0,1,70,63.29,10.18,10.18,0,0,1,69.77,62a7,7,0,0,1-.09-.93,15.89,15.89,0,0,1,.12-1.94q.11-.91.23-1.82t.23-1.77a12.28,12.28,0,0,0,.1-1.53c0-.25,0-.55,0-.88s0-.62-.08-.9a1.41,1.41,0,0,0-.06-.2A3.06,3.06,0,0,1,70,51a8.66,8.66,0,0,1,.12-1.37l.21-1.31c.07-.44.14-.89.21-1.35a7.86,7.86,0,0,0,.08-1.12,10.49,10.49,0,0,0-.11-1.61,11.22,11.22,0,0,1-.15-1.71,3.53,3.53,0,0,1,.22-1.14l0-.15s0-.1,0-.14a4.41,4.41,0,0,1,0-.52,2.69,2.69,0,0,1,.6-1.79,6.22,6.22,0,0,1,.64-.65l.16-.17V37.4a4.24,4.24,0,0,1,.46-2.09,3.19,3.19,0,0,1,1.49-1.38,5,5,0,0,1,1.78-.4c.51,0,1.1,0,1.75,0a2.63,2.63,0,0,1,1.43.39,2.72,2.72,0,0,1,.87.89,3.08,3.08,0,0,1,.4,1.1,5.32,5.32,0,0,1,.07.87,9.5,9.5,0,0,1-.17,1.7,10.36,10.36,0,0,0-.16,1.33v0c0,.59-.09,1.16-.15,1.71s-.1,1-.15,1.55c0,.32-.06.63-.08,1l1.34-.92c.64-.42,1.27-.82,1.88-1.2s1.25-.74,1.88-1.09l2-1.11a8.4,8.4,0,0,0,.88-.55,5.26,5.26,0,0,1,1.26-.7l.07,0,.07,0a4.11,4.11,0,0,1,1-.11H90l.19-.12.85-.56A10.11,10.11,0,0,1,92.16,37a3.66,3.66,0,0,1,1.55-.37A2.75,2.75,0,0,1,96.05,38a4.57,4.57,0,0,1,.68,2.55v.33a3,3,0,0,1-.08.67,3.83,3.83,0,0,1-1.29,2.16,9.88,9.88,0,0,1-1.75,1.21c-.59.32-1.19.63-1.81.9a7.19,7.19,0,0,0-1.15.63l-.55.39-.23.16,0,.05c.14.18.28.35.41.5a4.22,4.22,0,0,1,.53.72l0,0,0,0a3.35,3.35,0,0,1,.25.71q.06.26.11.54c0,.12,0,.24.08.37a1.82,1.82,0,0,0,.08.24,5.36,5.36,0,0,0,.38.68c.19.29.39.58.59.87l.63.88c.24.33.45.65.63,1l0,0c.18.31.36.66.55,1s.3.59.46.85a1.81,1.81,0,0,0,.21.29c.16.18.31.35.44.51a4.21,4.21,0,0,1,.44.67,2.67,2.67,0,0,1,.29,1.25,3.5,3.5,0,0,1-.85,2.24,7,7,0,0,1-1.59,1.39,13,13,0,0,1-1.89,1c-.64.28-1.27.52-1.86.72h0c-.29.09-.53.18-.74.27a2.87,2.87,0,0,1-1.16.29h-.08a3.49,3.49,0,0,1-2.43-1.07,6.27,6.27,0,0,1-1.14-1.73,12.52,12.52,0,0,1-.66-1.83,8,8,0,0,0-.44-1.24,2.34,2.34,0,0,0-.29-.43,6.77,6.77,0,0,1-.69-1,7,7,0,0,1-.48-1.05c-.14-.36-.28-.76-.43-1.18s-.28-.79-.44-1.21c-.09-.23-.17-.45-.26-.65l-.15.09c0,.06,0,.13.07.22a9.7,9.7,0,0,1,.4,1.45v0c.09.49.16,1,.21,1.52s.09.8.15,1.1v.1c0,.39.11.8.19,1.23s.16.91.24,1.35.15.91.2,1.33A10.09,10.09,0,0,1,82,62.46a3.83,3.83,0,0,1-.06.6,6.36,6.36,0,0,1-.17.76,5.09,5.09,0,0,1-.37.91,3,3,0,0,1-.86,1l0,0a3.89,3.89,0,0,1-1,.47c-.36.12-.77.24-1.2.34s-.83.19-1.23.26A6.51,6.51,0,0,1,75.94,67Z"/><path class="cls-3" d="M29.23,53.64a2.35,2.35,0,0,0,0,.31,2.4,2.4,0,0,1,0,.31,12.19,12.19,0,0,1-.14,1.81A12.81,12.81,0,0,0,29,58q0,.34,0,.74t0,.8a7.3,7.3,0,0,1-.07,1,3.06,3.06,0,0,1-.27.92,1.63,1.63,0,0,1-.6.67,1.86,1.86,0,0,1-1,.25,1.84,1.84,0,0,1-.66-.11L25.82,62q-.29-.13-.62-.24a2.31,2.31,0,0,0-.75-.11q-.34,0-.83,0t-1,0a3.44,3.44,0,0,1-1-.1.74.74,0,0,1-.42-.3,1.43,1.43,0,0,1-.17-.51,3,3,0,0,0-.23-.71,1.35,1.35,0,0,0-.3-.32,1.76,1.76,0,0,1-.36-.4,3.35,3.35,0,0,1-.25-.49q-.09-.22-.18-.41a2.39,2.39,0,0,0-.22-.37,2.2,2.2,0,0,0-.37-.38l-.39-.3-.27-.24a3.64,3.64,0,0,1-.25-.28,4.12,4.12,0,0,1-.31-.47,6.38,6.38,0,0,1-.59-.93q-.26-.51-.59-1a4,4,0,0,0-.81-.88,3,3,0,0,1-.71-.78,4.89,4.89,0,0,1-.37-.68q-.17-.37-.32-.79t-.29-.83q-.14-.41-.3-.78.06,1.6,0,3.22T14,56.21a9.66,9.66,0,0,0,.15,1.26,6.71,6.71,0,0,1,.11,1.26,5.53,5.53,0,0,1-.2,1.37,12,12,0,0,0-.3,1.69q-.08.69-.11,1.17a2,2,0,0,1-.19.8,1,1,0,0,1-.53.46,3.27,3.27,0,0,1-1.11.14l-.51,0a5,5,0,0,1-.56-.09l-.51-.12A1.37,1.37,0,0,1,9.93,64a.8.8,0,0,1-.22-.37,2.36,2.36,0,0,0-.28-.54l-.32-.36a1.7,1.7,0,0,1-.24-.36,2,2,0,0,1-.16-.5,3.86,3.86,0,0,1-.06-.76A18.81,18.81,0,0,1,8.76,59,18.45,18.45,0,0,0,8.88,57a4.62,4.62,0,0,0-.14-1,5.4,5.4,0,0,1-.14-1.23q0-.81,0-1.59t0-1.55a26.23,26.23,0,0,0-.14-2.74,25.37,25.37,0,0,1-.14-2.66,3.67,3.67,0,0,1,.11-.93q.11-.42.24-.86t.24-.94a5.62,5.62,0,0,0,.11-1.19,4.6,4.6,0,0,0,0-.53,4.41,4.41,0,0,1,0-.51,2.44,2.44,0,0,1,.76-2,3,3,0,0,1,2-.65,7.62,7.62,0,0,1,1.27.12,14,14,0,0,1,1.37.3,8.19,8.19,0,0,1,1.17.41,1.8,1.8,0,0,1,.7.48,1.37,1.37,0,0,1,.25.65,2,2,0,0,0,.29.77,2.83,2.83,0,0,0,.62.72,2.85,2.85,0,0,1,.54.56,1.21,1.21,0,0,1,.14.48,2.36,2.36,0,0,0,.22.7,2.51,2.51,0,0,0,.46.61q.31.32.6.67a4.8,4.8,0,0,1,.44.67,3.87,3.87,0,0,0,.42.63,10.19,10.19,0,0,0,1.14,1.09,6.7,6.7,0,0,1,1,1.05,7.34,7.34,0,0,1,.61,1l.48.93q.21.42.37.71t.32.28q.16,0,.2-.35a8,8,0,0,0,0-.88q0-.38,0-.83l0-.86q0-.41,0-.75t0-.5a2,2,0,0,1,.13-.69,2.64,2.64,0,0,0,.13-.89,16.91,16.91,0,0,0-.09-1.72,17.68,17.68,0,0,1-.09-1.8,6.18,6.18,0,0,1,.11-1.19q.11-.57.24-1.08t.24-1a4.48,4.48,0,0,0,.11-1,5.32,5.32,0,0,0-.07-.91q-.07-.4-.15-.76l-.15-.67a2.78,2.78,0,0,1-.07-.62,1.67,1.67,0,0,1,.12-.63,1.89,1.89,0,0,1,.33-.55,1.52,1.52,0,0,1,.53-.38,1.73,1.73,0,0,1,.72-.14l.46.05a2.07,2.07,0,0,1,.79.3,2.3,2.3,0,0,1,.74.78,2.83,2.83,0,0,1,.32,1.48,5.85,5.85,0,0,1-.06.83,6.77,6.77,0,0,0-.06,1q0,1,.07,1.91t.16,1.82q.09.88.16,1.7t.07,1.53a20.64,20.64,0,0,1-.13,2.36,17.42,17.42,0,0,0-.13,2A19.08,19.08,0,0,0,29,51.32Q29.13,52.57,29.23,53.64Z"/><path class="cls-3" d="M62.59,55.26a.79.79,0,0,1-.13.38,1.57,1.57,0,0,1-.29.31l-.39.32a5.35,5.35,0,0,0-.41.37,2.26,2.26,0,0,0-.26.35l-.19.34a3.73,3.73,0,0,1-.19.32,1.12,1.12,0,0,1-.26.27,1.28,1.28,0,0,1-.38.19l-.42.14a2.11,2.11,0,0,0-.34.15.25.25,0,0,0-.14.22,1,1,0,0,0,.19.42q.19.3.43.64l.48.63.31.41.38.64q.2.33.37.66a5.52,5.52,0,0,1,.28.62,1.53,1.53,0,0,1,.11.54,1.45,1.45,0,0,1-.11.53,2,2,0,0,1-.83,1,1.28,1.28,0,0,1-.66.17A2,2,0,0,1,59,64.48a4.49,4.49,0,0,1-1-.9,1.08,1.08,0,0,1-.23-.44.85.85,0,0,0-.25-.42,1.15,1.15,0,0,0-.45-.31.81.81,0,0,1-.34-.21,1.35,1.35,0,0,1-.23-.38l-.17-.42a1.65,1.65,0,0,0-.18-.34.29.29,0,0,0-.24-.14.63.63,0,0,0-.37.14,4.12,4.12,0,0,0-.39.33q-.2.19-.37.38a3.44,3.44,0,0,1-.31.31,5.19,5.19,0,0,1-.83.51q-.49.24-1.05.48t-1.17.42l-1.17.37a4.05,4.05,0,0,0-.67.26l-.66.31a5.76,5.76,0,0,1-.66.25,1.86,1.86,0,0,1-.67.08l-.37,0-.37,0a3.41,3.41,0,0,0-.87.1q-.38.1-.75.23t-.75.23a3.26,3.26,0,0,1-.83.1q-.28,0-.78-.05l-1-.13q-.52-.08-1-.19a1.79,1.79,0,0,1-.64-.25,2,2,0,0,1-.6-.77,5.5,5.5,0,0,1-.34-1q-.13-.56-.22-1.18t-.23-1.25l-.38-1.64a7.4,7.4,0,0,1-.2-1.68A4.14,4.14,0,0,1,38.42,56a2.86,2.86,0,0,1,.65-1.09l.26-.22.15-.14a.38.38,0,0,0,.07-.12.72.72,0,0,0,0-.2.46.46,0,0,0,0-.14.38.38,0,0,1,0-.12q0-.08.46-.35l1.12-.64,1.44-.76L44,51.44a4.3,4.3,0,0,0,.6-.43,5.79,5.79,0,0,1,.64-.48,2.24,2.24,0,0,1,.47-.18l.56-.16A2.39,2.39,0,0,0,46.7,50a.33.33,0,0,0,.2-.29,1.76,1.76,0,0,0-.4-1q-.4-.55-.91-1.13t-1-1.22A3.29,3.29,0,0,1,44,45l-.33-1.26a4.83,4.83,0,0,1-.17-1.26,2.14,2.14,0,0,1,.07-.64,1.08,1.08,0,0,1,.21-.37l.31-.33a4.22,4.22,0,0,0,.39-.48,2,2,0,0,0,.3-.71,1.45,1.45,0,0,1,.2-.55,1.55,1.55,0,0,1,.49-.54,8.69,8.69,0,0,1,.76-.5l.84-.49a3.42,3.42,0,0,0,.73-.55,1.2,1.2,0,0,0,.32-.38.44.44,0,0,1,.22-.24,2.27,2.27,0,0,1,.94-.24q.58,0,1,0h.42l.4.21,1,.51q.59.29,1.31.6a11.88,11.88,0,0,0,1.48.51l.75.23a5.74,5.74,0,0,1,.86.37,3,3,0,0,1,.71.52.91.91,0,0,1,.29.66,1.07,1.07,0,0,1,0,.27,1.21,1.21,0,0,0,0,.31,2.11,2.11,0,0,0,.12.71q.12.34.27.68t.27.65a1.7,1.7,0,0,1,.12.62.94.94,0,0,1-.13.49,1.92,1.92,0,0,1-.33.41q-.2.19-.46.39a4.22,4.22,0,0,0-.48.45,4.7,4.7,0,0,0-.68.92,3.28,3.28,0,0,1-.58.78,2.63,2.63,0,0,1-.89.57,3.24,3.24,0,0,0-.81.42q-.18.16-.49.49t-.59.67l-.5.63a1.12,1.12,0,0,0-.21.34.74.74,0,0,0,.18.4q.18.24.42.52l.51.55a3.82,3.82,0,0,1,.42.52.57.57,0,0,1,.12.31.81.81,0,0,0,.12.35,1.27,1.27,0,0,1,.36.33l.35.48a3.92,3.92,0,0,0,.35.43.53.53,0,0,0,.38.19,2.37,2.37,0,0,0,.71-.12,5,5,0,0,0,.78-.32q.39-.2.76-.42a6.69,6.69,0,0,0,.65-.44,3,3,0,0,0,.49-.48,2.9,2.9,0,0,1,.39-.41,1.69,1.69,0,0,1,.51-.29,2.39,2.39,0,0,1,.82-.11,1,1,0,0,1,.53.18,3.88,3.88,0,0,1,.52.39,4.14,4.14,0,0,1,.38.39q.15.18.15.16a1.07,1.07,0,0,1,0,.27,1.29,1.29,0,0,0,0,.33,1.16,1.16,0,0,0,.12.27q.12.23.26.56t.26.68a2,2,0,0,1,.12.62Zm-11,.28a8,8,0,0,0-.61-.87q-.28-.34-.69-.79a3.68,3.68,0,0,1-.24-.3q-.18-.24-.4-.5a4.45,4.45,0,0,0-.48-.47.75.75,0,0,0-.46-.21.27.27,0,0,0-.2.08q-.75.49-1.46.9t-1.25.78a6.29,6.29,0,0,0-.88.69.92.92,0,0,0-.33.65A1.6,1.6,0,0,0,45,56.57a1,1,0,0,0,.75.43,1.09,1.09,0,0,0,.48-.11l.46-.24.46-.24a1.09,1.09,0,0,1,.48-.11,1.18,1.18,0,0,1,.35.06,1.18,1.18,0,0,0,.35.06,6,6,0,0,0,1.78-.34Zm2.57-13q-.06-.3-.63-.64a10.54,10.54,0,0,0-1.26-.63,11.8,11.8,0,0,0-1.39-.49,4.25,4.25,0,0,0-1-.19,1,1,0,0,0-.55.2,2.65,2.65,0,0,0-.53.51,2.92,2.92,0,0,0-.39.65,1.57,1.57,0,0,0-.15.63,1,1,0,0,0,.06.28,1.35,1.35,0,0,1,.06.42,1.49,1.49,0,0,1-.16.45,1,1,0,0,0-.12.47,3,3,0,0,0,.34.89,9.65,9.65,0,0,0,.63,1,6.38,6.38,0,0,0,.69.83q.34.34.53.34t.25-.24a1.72,1.72,0,0,1,.37-.42l.93-.73a4.39,4.39,0,0,0,.77-.81,1.49,1.49,0,0,0,.29-.61,1.49,1.49,0,0,1,.19-.51,1.31,1.31,0,0,1,.27-.27l.34-.28a2.29,2.29,0,0,0,.3-.32.66.66,0,0,0,.13-.41Z"/><path class="cls-3" d="M95.11,41.22a2.27,2.27,0,0,1-.78,1.3,8.26,8.26,0,0,1-1.47,1q-.83.46-1.7.85a8.6,8.6,0,0,0-1.44.8l-.48.33q-.29.19-.56.4a3.53,3.53,0,0,0-.46.43.55.55,0,0,0-.17.4,1.28,1.28,0,0,0,.18.63,5.2,5.2,0,0,0,.42.64q.24.31.48.58a2.73,2.73,0,0,1,.33.45,1.76,1.76,0,0,1,.13.37q.05.21.09.45t.1.48a3.4,3.4,0,0,0,.16.49,6.87,6.87,0,0,0,.51.91q.3.47.63.92l.64.89q.31.44.56.84t.5,1q.25.53.54,1a3.33,3.33,0,0,0,.39.54l.37.43a2.61,2.61,0,0,1,.27.41,1.1,1.1,0,0,1,.11.52A1.91,1.91,0,0,1,94,59.47a5.39,5.39,0,0,1-1.23,1.07,11.31,11.31,0,0,1-1.66.88q-.91.39-1.74.68-.51.16-.88.32a1.6,1.6,0,0,1-.54.16A1.91,1.91,0,0,1,86.6,62a4.68,4.68,0,0,1-.85-1.29,10.88,10.88,0,0,1-.58-1.6,9.5,9.5,0,0,0-.54-1.49,3.89,3.89,0,0,0-.49-.75,5.15,5.15,0,0,1-.55-.83,5.35,5.35,0,0,1-.38-.84q-.2-.54-.41-1.14t-.44-1.23q-.23-.63-.47-1.12a5.89,5.89,0,0,0-.46-.82q-.22-.32-.45-.32a.61.61,0,0,0-.29.1,2.23,2.23,0,0,0-.33.24l-.29.26a.68.68,0,0,1-.19.14,1.31,1.31,0,0,1-.43.23,1.2,1.2,0,0,0-.32.13.56.56,0,0,0-.21.26,1.55,1.55,0,0,0-.08.59A3.13,3.13,0,0,0,79,53.58a8.07,8.07,0,0,1,.33,1.21q.12.69.19,1.41t.17,1.24q.08.63.2,1.3t.23,1.34q.11.66.19,1.27a8.61,8.61,0,0,1,.08,1.1,2.64,2.64,0,0,1,0,.35,4.76,4.76,0,0,1-.13.57A3.49,3.49,0,0,1,80,64a1.42,1.42,0,0,1-.4.5,2.85,2.85,0,0,1-.62.26q-.48.16-1.06.3t-1.14.24a5.18,5.18,0,0,1-.86.1,7.59,7.59,0,0,1-.76-.05l-1-.13a9.07,9.07,0,0,1-1-.2,2.1,2.1,0,0,1-.67-.28A1.8,1.8,0,0,1,72,64a7.23,7.23,0,0,1-.4-1.11,8.57,8.57,0,0,1-.23-1.09,6,6,0,0,1-.07-.71,14.24,14.24,0,0,1,.11-1.75q.11-.9.23-1.8t.23-1.78A13.81,13.81,0,0,0,72,54q0-.42,0-1T71.83,52a2.85,2.85,0,0,0-.14-.52,1.48,1.48,0,0,1-.1-.52,7.05,7.05,0,0,1,.1-1.11l.21-1.3q.11-.68.21-1.38a9.4,9.4,0,0,0,.1-1.35A12,12,0,0,0,72.08,44,9.61,9.61,0,0,1,72,42.5a2,2,0,0,1,.13-.63,2,2,0,0,0,.13-.61,3.26,3.26,0,0,0,0-.37,2.83,2.83,0,0,1,0-.33,1.16,1.16,0,0,1,.22-.77,4.62,4.62,0,0,1,.48-.49,3.29,3.29,0,0,0,.48-.53,1.45,1.45,0,0,0,.22-.87V37.4a2.76,2.76,0,0,1,.26-1.32,1.59,1.59,0,0,1,.76-.7,3.47,3.47,0,0,1,1.22-.26q.73,0,1.66,0a1.08,1.08,0,0,1,.59.14,1.14,1.14,0,0,1,.36.37,1.5,1.5,0,0,1,.19.54,3.71,3.71,0,0,1,.05.61,7.88,7.88,0,0,1-.14,1.42,11.9,11.9,0,0,0-.18,1.54q-.06.87-.14,1.66t-.15,1.57q-.07.78-.12,1.56t-.05,1.63q0,.38,0,.59t.14.2a.9.9,0,0,0,.37-.14,6,6,0,0,0,.53-.33l.5-.36.3-.23q1.09-.79,2-1.41t1.83-1.16q.9-.55,1.83-1.06l2-1.1a9.94,9.94,0,0,0,1.05-.66,3.81,3.81,0,0,1,.87-.5,2.61,2.61,0,0,1,.62-.06,1.68,1.68,0,0,0,.54-.06,3,3,0,0,0,.6-.33l.81-.53a8.46,8.46,0,0,1,.91-.5,2.09,2.09,0,0,1,.88-.22,1.21,1.21,0,0,1,1,.65,3,3,0,0,1,.42,1.68v.33A1.37,1.37,0,0,1,95.11,41.22Z"/></svg>